<?xml version="1.0" encoding="UTF-8" standalone="no"?>
<!DOCTYPE
  svg
  PUBLIC "-//W3C//DTD SVG 1.1//EN" "http://www.w3.org/Graphics/SVG/1.1/DTD/svg11.dtd"
>
<svg
  xmlns="http://www.w3.org/2000/svg"
  version="1.1"
  viewBox="0 0 512 512"
  width="512"
  height="512"
>
  <g
    stroke-width="2.0"
    fill="none"
    stroke-linecap="butt"
  >
    <path
      stroke="#585555"
      vector-effect="non-scaling-stroke"
      d="
  M 462.50 354.54
  Q 462.10 353.98 462.21 353.25"
    />
    <path
      stroke="#c18582"
      vector-effect="non-scaling-stroke"
      d="
  M 462.21 353.25
  Q 463.21 352.31 463.81 350.31
  Q 471.07 326.20 472.47 302.75
  Q 474.85 262.55 459.94 225.31
  Q 446.11 190.79 419.69 162.69
  Q 412.41 154.94 405.42 148.68
  Q 384.55 130.00 358.00 118.00
  Q 356.56 117.35 355.96 118.25"
    />
    <path
      stroke="#585555"
      vector-effect="non-scaling-stroke"
      d="
  M 355.96 118.25
  Q 350.98 104.39 336.50 109.46"
    />
    <path
      stroke="#c18582"
      vector-effect="non-scaling-stroke"
      d="
  M 336.50 109.46
  Q 337.02 108.86 336.89 108.27
  C 336.83 108.01 336.57 107.78 336.21 107.68
  Q 258.47 85.69 180.50 106.80
  Q 180.40 106.82 178.99 107.09
  Q 176.67 107.52 176.25 109.96"
    />
    <path
      stroke="#585555"
      vector-effect="non-scaling-stroke"
      d="
  M 176.25 109.96
  Q 172.50 108.29 170.50 108.00
  Q 163.91 107.05 160.56 111.81
  Q 160.01 112.60 157.71 116.75"
    />
    <path
      stroke="#c28581"
      vector-effect="non-scaling-stroke"
      d="
  M 157.71 116.75
  Q 154.47 117.12 151.58 118.60
  Q 142.87 123.08 134.59 128.30
  Q 125.58 133.97 118.38 139.22
  Q 103.42 150.12 91.01 164.02
  Q 46.78 213.57 40.88 279.29
  Q 39.86 290.75 39.77 297.72
  Q 39.66 307.00 41.06 316.17
  Q 41.28 317.67 44.18 333.89
  Q 45.77 342.76 47.96 351.50"
    />
    <path
      stroke="#6d3431"
      vector-effect="non-scaling-stroke"
      d="
  M 336.50 109.46
  Q 315.46 119.11 297.93 134.20
  Q 291.29 139.92 284.53 145.94
  C 283.83 146.57 282.89 146.85 281.96 146.71
  Q 255.12 142.58 228.96 146.60
  C 228.01 146.75 227.04 146.43 226.36 145.74
  Q 203.62 122.84 176.25 109.96"
    />
    <path
      stroke="#6d3431"
      vector-effect="non-scaling-stroke"
      d="
  M 355.96 118.25
  Q 369.30 155.33 377.06 196.94
  Q 377.52 199.40 379.46 201.30
  Q 381.93 203.73 381.97 203.78
  Q 412.44 239.58 412.32 287.20
  Q 412.31 287.68 412.69 287.36
  Q 417.42 283.22 422.75 281.50
  Q 442.98 274.96 458.44 289.31
  Q 465.19 295.59 467.06 304.21
  Q 468.92 312.80 465.56 320.51
  Q 462.08 328.45 453.76 334.09
  Q 452.33 335.06 450.79 334.19
  L 444.75 330.79"
    />
    <path
      stroke="#2d2e2a"
      vector-effect="non-scaling-stroke"
      d="
  M 444.75 330.79
  L 439.79 328.75"
    />
    <path
      stroke="#2d2e2a"
      vector-effect="non-scaling-stroke"
      d="
  M 439.79 328.75
  L 432.75 326.79"
    />
    <path
      stroke="#191918"
      vector-effect="non-scaling-stroke"
      d="
  M 432.75 326.79
  Q 417.38 324.20 405.70 334.20
  Q 404.35 335.35 403.06 336.57
  Q 402.52 337.07 403.06 336.96
  Q 403.18 336.94 403.28 336.85
  Q 415.11 325.38 431.75 327.04"
    />
    <path
      stroke="#2d2e2a"
      vector-effect="non-scaling-stroke"
      d="
  M 431.75 327.04
  L 439.25 329.04"
    />
    <path
      stroke="#2d2e2a"
      vector-effect="non-scaling-stroke"
      d="
  M 439.25 329.04
  L 444.25 331.04"
    />
    <path
      stroke="#6d3431"
      vector-effect="non-scaling-stroke"
      d="
  M 444.25 331.04
  Q 458.35 337.99 462.21 353.25"
    />
    <path
      stroke="#5c5a5a"
      vector-effect="non-scaling-stroke"
      d="
  M 462.50 354.54
  Q 464.08 371.60 451.53 381.78
  Q 449.65 383.31 447.65 384.27
  Q 445.24 385.43 443.25 385.75
  Q 433.63 387.31 418.74 388.09
  Q 396.73 389.25 374.74 390.62
  Q 367.82 391.05 354.78 392.04
  Q 315.57 395.04 276.25 396.03
  Q 266.18 396.28 256.24 396.23
  Q 212.01 395.97 176.75 393.00
  Q 140.55 389.95 104.25 388.72
  Q 91.85 388.30 75.44 386.81
  Q 70.63 386.38 66.36 385.05
  Q 61.88 383.67 58.45 380.59
  Q 46.87 370.19 49.29 353.25"
    />
    <path
      stroke="#6e3430"
      vector-effect="non-scaling-stroke"
      d="
  M 49.29 353.25
  Q 51.62 342.39 60.00 335.21"
    />
    <path
      stroke="#2d2e2a"
      vector-effect="non-scaling-stroke"
      d="
  M 60.00 335.21
  Q 62.28 334.43 64.94 332.69
  Q 68.46 330.38 73.25 328.46"
    />
    <path
      stroke="#191918"
      vector-effect="non-scaling-stroke"
      d="
  M 73.25 328.46
  Q 81.50 325.88 87.75 326.75
  Q 101.75 328.70 111.49 340.60
  Q 111.57 340.70 111.67 340.73
  Q 111.82 340.77 111.91 340.72
  C 112.00 340.65 111.98 340.47 111.85 340.31
  Q 103.42 329.80 91.00 326.75
  Q 82.18 324.58 73.00 328.21"
    />
    <path
      stroke="#2d2e2a"
      vector-effect="non-scaling-stroke"
      d="
  M 73.00 328.21
  Q 68.54 329.59 64.25 332.50
  Q 62.43 333.73 59.75 334.79"
    />
    <path
      stroke="#6e3430"
      vector-effect="non-scaling-stroke"
      d="
  M 59.75 334.79
  Q 47.46 330.00 45.31 317.19
  Q 42.71 301.68 53.60 290.10
  Q 62.78 280.35 76.26 279.61
  Q 89.15 278.91 98.44 286.98
  Q 99.24 287.68 99.25 286.61
  Q 99.40 245.55 122.09 212.09
  Q 127.00 204.85 133.48 198.65
  C 133.87 198.28 134.14 197.80 134.24 197.27
  Q 136.53 186.03 138.68 176.09
  Q 145.28 145.48 157.71 116.75"
    />
    <path
      stroke="#828282"
      vector-effect="non-scaling-stroke"
      d="
  M 347.2098 257.8292
  C 346.44 243.99 334.27 233.42 320.0394 234.2191
  C 305.81 235.01 294.90 246.88 295.6702 260.7108
  C 296.44 274.55 308.61 285.12 322.8406 284.3209
  C 337.07 283.53 347.98 271.66 347.2098 257.8292"
    />
    <path
      stroke="#828282"
      vector-effect="non-scaling-stroke"
      d="
  M 216.1692 262.1959
  C 217.71 248.49 207.47 236.08 193.3145 234.4957
  C 179.15 232.91 166.43 242.73 164.8908 256.4441
  C 163.35 270.15 173.59 282.56 187.7455 284.1443
  C 201.91 285.73 214.63 275.91 216.1692 262.1959"
    />
    <path
      stroke="#7f7f7f"
      vector-effect="non-scaling-stroke"
      d="
  M 250.01 284.77
  Q 251.22 285.28 252.52 285.34
  Q 254.08 285.40 255.48 285.52
  Q 257.85 285.74 259.82 284.39
  Q 260.95 283.61 261.44 283.49
  Q 263.31 283.01 262.81 285.46
  Q 262.22 288.41 258.86 289.36
  C 257.97 289.61 257.36 290.36 257.36 291.18
  L 257.36 295.32
  C 257.36 295.59 257.62 295.82 257.94 295.84
  Q 263.05 296.13 267.98 294.68
  Q 272.57 293.34 274.06 290.06
  Q 275.34 287.24 273.47 285.28
  Q 272.37 284.13 269.67 283.39
  Q 257.86 280.16 245.85 282.39
  Q 242.36 283.04 240.45 284.40
  Q 236.68 287.08 239.01 290.79
  Q 240.74 293.53 244.47 294.99
  Q 249.73 297.04 255.57 295.91
  C 255.86 295.86 256.06 295.61 256.07 295.31
  Q 256.10 294.15 256.15 293.01
  Q 256.27 289.99 253.46 289.15
  Q 250.22 288.17 249.64 285.06
  Q 249.54 284.57 250.01 284.77"
    />
    <path
      stroke="#7f7f7f"
      vector-effect="non-scaling-stroke"
      d="
  M 235.19 317.81
  Q 240.98 322.18 247.16 318.64
  Q 253.16 315.20 254.74 308.68
  Q 255.42 305.92 255.47 305.47
  Q 255.81 302.72 252.55 302.79
  C 252.28 302.80 252.05 303.02 252.03 303.32
  Q 251.64 308.22 249.94 311.19
  Q 247.56 315.33 242.78 315.88
  Q 239.92 316.21 238.04 315.03
  Q 235.78 313.60 235.32 310.49
  Q 234.80 306.99 232.32 308.87
  C 232.07 309.06 231.90 309.35 231.85 309.68
  Q 231.03 314.67 235.19 317.81"
    />
    <path
      stroke="#7f7f7f"
      vector-effect="non-scaling-stroke"
      d="
  M 266.00 318.90
  Q 272.09 322.02 278.37 317.10
  Q 281.65 314.54 281.19 311.06
  Q 280.83 308.37 278.23 309.09
  C 277.94 309.17 277.73 309.42 277.68 309.74
  Q 276.78 315.12 272.36 315.79
  Q 268.67 316.36 265.82 313.79
  Q 262.58 310.86 261.66 305.09
  C 261.54 304.32 261.02 303.67 260.29 303.39
  Q 256.65 301.98 257.68 306.97
  Q 258.47 310.82 260.57 313.94
  Q 262.81 317.26 266.00 318.90"
    />
    <path
      stroke="#965e56"
      vector-effect="non-scaling-stroke"
      d="
  M 59.75 334.79
  L 60.00 335.21"
    />
    <path
      stroke="#c68a86"
      vector-effect="non-scaling-stroke"
      d="
  M 49.29 353.25
  Q 47.81 353.03 47.96 351.50"
    />
    <path
      stroke="#965e57"
      vector-effect="non-scaling-stroke"
      d="
  M 444.25 331.04
  Q 444.66 331.06 444.75 330.79"
    />
    <path
      stroke="#42433e"
      vector-effect="non-scaling-stroke"
      d="
  M 73.25 328.46
  Q 73.21 328.25 73.00 328.21"
    />
    <path
      stroke="#42433e"
      vector-effect="non-scaling-stroke"
      d="
  M 432.75 326.79
  Q 432.32 327.13 431.75 327.04"
    />
    <path
      stroke="#555850"
      vector-effect="non-scaling-stroke"
      d="
  M 439.79 328.75
  Q 439.62 329.09 439.25 329.04"
    />
    <svg xmlns="http://www.w3.org/2000/svg" version="1.1" viewBox="-100 -230 631 56">
<g stroke-width="2.00" fill="none" stroke-linecap="butt">
<path stroke="#8c8c8c" vector-effect="non-scaling-stroke" d="
  M 333.18 8.22
  L 333.00 5.23
  A 1.22 1.05 82.5 0 0 331.70 4.07
  Q 330.42 4.38 329.81 6.75
  Q 329.37 8.46 327.68 9.02
  Q 322.07 10.88 324.54 16.55
  A 0.42 0.34 75.6 0 1 324.27 17.13
  L 320.77 17.08
  A 0.87 0.78 -89.7 0 1 320.00 16.21
  L 320.00 10.00
  A 0.71 0.66 -82.4 0 0 319.53 9.33
  Q 318.39 9.00 317.28 9.38
  A 0.77 0.74 -7.5 0 0 316.75 10.05
  L 316.43 16.44
  A 0.57 0.52 -89.9 0 1 315.94 16.97
  Q 312.16 17.25 308.37 17.49
  Q 307.02 17.58 306.35 18.01
  Q 304.88 18.96 306.22 20.57
  A 1.12 1.06 -19.0 0 0 307.06 20.95
  L 315.48 20.99
  A 0.53 0.52 0.6 0 1 316.00 21.51
  L 316.00 30.33
  A 0.67 0.67 -0.4 0 1 315.33 31.00
  Q 311.38 31.00 307.25 31.02
  Q 303.89 31.04 304.46 34.19
  A 0.61 0.59 -4.4 0 0 305.06 34.69
  L 315.43 34.81
  A 0.51 0.50 0.0 0 1 315.94 35.31
  Q 316.05 43.53 316.00 51.75
  Q 315.98 54.78 318.55 53.71
  A 0.80 0.78 80.2 0 0 319.03 53.01
  L 319.80 35.31
  A 0.54 0.50 -88.3 0 1 320.31 34.79
  L 333.82 35.14
  A 0.59 0.54 88.8 0 1 334.35 35.70
  Q 334.59 40.05 332.44 43.44
  Q 331.32 45.19 329.06 45.31
  A 1.64 1.16 15.6 0 0 328.17 45.63
  Q 325.74 47.74 329.25 48.50
  Q 332.73 49.25 334.96 45.72
  Q 338.57 40.01 337.75 33.30
  A 1.20 1.16 -75.3 0 0 337.30 32.50
  Q 335.02 30.76 332.05 30.90
  A 0.43 0.41 2.6 0 1 331.60 30.43
  L 332.87 23.22
  A 0.54 0.47 10.1 0 1 333.49 22.85
  Q 343.81 24.81 343.34 14.95
  Q 343.28 13.58 343.64 12.60
  Q 344.06 11.46 344.59 10.36
  Q 345.04 9.45 344.93 8.93
  Q 344.72 7.84 343.05 8.40
  Q 341.50 8.91 339.87 10.49
  A 1.09 0.88 30.4 0 1 338.80 10.65
  L 333.80 8.80
  A 0.93 0.48 15.7 0 1 333.18 8.22"
/>
<path stroke="#8c8c8c" vector-effect="non-scaling-stroke" d="
  M 387.2370 9.0700
  A 4.02 1.93 34.9 0 0 385.0442 5.1871
  A 4.02 1.93 34.9 0 0 380.6430 4.4700
  A 4.02 1.93 34.9 0 0 382.8358 8.3529
  A 4.02 1.93 34.9 0 0 387.2370 9.0700"
/>
<path stroke="#8c8c8c" vector-effect="non-scaling-stroke" d="
  M 91.69 12.97
  L 85.69 12.71
  A 1.63 1.48 1.8 0 0 84.00 14.15
  Q 83.96 16.08 85.77 16.07
  Q 87.16 16.06 87.23 16.07
  Q 91.99 16.49 96.76 16.27
  A 1.18 1.02 15.8 0 0 97.59 15.88
  Q 98.77 14.46 97.36 13.56
  Q 96.94 13.30 96.08 13.17
  Q 95.40 13.07 94.73 12.89
  A 0.34 0.31 -63.5 0 1 94.58 12.37
  Q 95.38 11.23 94.31 9.94
  Q 92.02 7.18 90.87 6.08
  A 0.96 0.94 60.1 0 0 90.01 5.84
  Q 86.88 6.52 89.31 8.94
  Q 91.14 10.76 91.98 12.48
  A 0.34 0.32 77.2 0 1 91.69 12.97"
/>
<path stroke="#8c8c8c" vector-effect="non-scaling-stroke" d="
  M 222.38 18.43
  Q 227.19 14.22 222.94 9.31
  Q 218.31 3.96 212.16 6.49
  Q 209.87 7.44 208.40 9.25
  Q 206.82 11.19 206.31 13.56
  Q 205.14 18.99 210.50 20.75
  Q 212.04 21.26 218.25 21.00
  Q 218.85 20.98 220.79 21.80
  A 1.42 1.10 41.3 0 0 221.72 21.86
  Q 223.95 21.09 222.34 19.13
  A 0.52 0.49 50.0 0 1 222.38 18.43"
/>
<path stroke="#8c8c8c" vector-effect="non-scaling-stroke" d="
  M 37.9222 8.5888
  A 1.31 1.31 0.0 0 0 36.6706 7.2229
  L 11.8742 6.1403
  A 1.31 1.31 0.0 0 0 10.5083 7.3919
  L 10.4778 8.0912
  A 1.31 1.31 0.0 0 0 11.7294 9.4571
  L 36.5258 10.5397
  A 1.31 1.31 0.0 0 0 37.8917 9.2881
  L 37.9222 8.5888"
/>
<path stroke="#8c8c8c" vector-effect="non-scaling-stroke" d="
  M 57.19 13.95
  L 51.05 13.85
  A 0.68 0.62 8.5 0 0 50.40 14.28
  Q 49.45 17.37 52.68 17.20
  Q 54.84 17.08 54.94 17.09
  Q 59.95 17.17 64.95 17.03
  Q 65.94 17.00 66.41 16.54
  Q 67.21 15.77 66.50 14.71
  A 1.12 1.04 73.8 0 0 65.70 14.23
  L 61.81 13.93
  A 0.79 0.73 79.3 0 1 61.17 13.46
  L 58.82 8.12
  A 1.34 0.97 4.7 0 0 58.10 7.50
  Q 55.07 6.34 55.71 9.07
  Q 55.85 9.66 56.64 11.23
  Q 57.18 12.30 57.55 13.46
  A 0.38 0.37 81.6 0 1 57.19 13.95"
/>
<path stroke="#8c8c8c" vector-effect="non-scaling-stroke" d="
  M 293.87 30.57
  Q 294.14 20.27 292.69 10.12
  Q 292.42 8.22 290.51 8.00
  Q 275.18 6.28 259.79 7.22
  Q 259.66 7.22 258.72 7.23
  Q 256.04 7.25 256.18 9.86
  Q 256.25 11.09 256.24 11.15
  Q 256.11 29.22 256.78 48.04
  Q 256.86 50.33 259.10 50.34
  L 291.35 50.50
  A 0.57 0.57 -85.2 0 0 291.91 50.02
  Q 293.63 40.10 293.87 30.57"
/>
<path stroke="#8c8c8c" vector-effect="non-scaling-stroke" d="
  M 375.32 18.06
  A 0.98 0.83 81.7 0 1 375.98 17.00
  L 389.86 14.53
  A 1.42 1.37 84.1 0 1 391.47 15.89
  Q 391.55 18.03 391.28 20.98
  Q 391.09 23.07 392.67 23.43
  A 1.70 1.69 9.4 0 0 394.73 21.96
  Q 395.11 18.40 395.01 14.97
  Q 394.95 12.91 393.93 11.99
  Q 392.62 10.82 390.50 11.03
  Q 382.97 11.75 375.40 13.02
  A 1.29 1.29 63.9 0 1 374.26 12.64
  Q 371.39 9.66 371.00 13.50
  Q 370.81 15.33 373.11 24.61
  Q 373.37 25.66 373.88 26.09
  Q 374.73 26.80 375.78 26.21
  A 0.80 0.77 -18.4 0 0 376.18 25.44
  L 375.32 18.06"
/>
<path stroke="#8c8c8c" vector-effect="non-scaling-stroke" d="
  M 242.9763 12.6073
  A 0.32 0.32 0.0 0 0 242.6558 12.2878
  L 240.1158 12.2922
  A 0.32 0.32 0.0 0 0 239.7963 12.6128
  L 239.8637 51.1927
  A 0.32 0.32 0.0 0 0 240.1842 51.5122
  L 242.7242 51.5078
  A 0.32 0.32 0.0 0 0 243.0437 51.1872
  L 242.9763 12.6073"
/>
<path stroke="#8c8c8c" vector-effect="non-scaling-stroke" d="
  M 189.33 15.10
  Q 176.20 13.50 160.85 14.60
  Q 158.72 14.75 158.35 16.86
  Q 156.34 28.38 158.90 41.52
  A 1.76 1.75 -5.7 0 0 160.64 42.93
  L 187.44 42.69
  A 0.73 0.72 9.3 0 0 188.11 42.22
  Q 192.33 30.56 191.22 17.07
  Q 191.08 15.31 189.33 15.10"
/>
<path stroke="#8c8c8c" vector-effect="non-scaling-stroke" d="
  M 12.54 27.29
  L 13.00 31.27
  A 1.41 1.28 87.5 0 0 14.23 32.51
  Q 23.81 32.95 33.58 32.33
  Q 35.09 32.23 35.75 31.63
  Q 36.74 30.73 36.52 29.17
  A 1.05 1.04 -88.8 0 1 37.73 28.00
  Q 39.42 28.29 41.10 28.48
  Q 41.27 28.50 41.38 28.44
  Q 41.67 28.26 41.26 28.05
  Q 39.76 27.26 38.03 27.19
  A 1.02 1.02 -4.9 0 1 37.09 26.40
  Q 36.37 23.17 38.78 22.52
  Q 39.43 22.35 39.58 22.29
  Q 41.71 21.47 39.81 21.34
  Q 39.39 21.31 38.87 21.54
  Q 36.51 22.64 36.75 19.25
  Q 37.06 14.89 32.98 15.14
  Q 31.08 15.25 31.01 15.25
  Q 23.44 15.25 14.86 15.25
  Q 12.88 15.25 12.83 16.94
  L 12.57 25.07
  A 1.10 1.02 -86.3 0 1 11.44 26.14
  Q 8.47 25.79 8.76 26.54
  A 0.88 0.70 -9.2 0 0 9.57 26.99
  L 11.95 26.90
  A 0.59 0.45 -3.9 0 1 12.54 27.29"
/>
<path stroke="#8c8c8c" vector-effect="non-scaling-stroke" d="
  M 72.48 21.21
  Q 75.11 21.02 78.90 20.80
  Q 79.99 20.74 80.50 20.36
  Q 81.47 19.64 80.77 18.41
  A 1.08 0.88 -8.2 0 0 79.99 17.94
  Q 77.01 17.60 74.01 17.83
  Q 71.37 18.02 69.40 17.17
  A 1.02 1.01 -75.1 0 0 68.00 17.99
  Q 66.40 31.98 65.79 46.03
  Q 65.74 47.29 65.89 47.96
  Q 66.41 50.19 68.34 48.30
  A 1.34 1.28 -21.3 0 0 68.74 47.44
  L 70.33 23.44
  Q 70.47 21.36 72.48 21.21"
/>
<path stroke="#8c8c8c" vector-effect="non-scaling-stroke" d="
  M 90.7403 18.2151
  A 1.32 1.32 0.0 0 0 89.3187 17.0052
  L 88.6808 17.0565
  A 1.32 1.32 0.0 0 0 87.4709 18.4781
  L 87.7997 22.5649
  A 1.32 1.32 0.0 0 0 89.2213 23.7748
  L 89.8592 23.7235
  A 1.32 1.32 0.0 0 0 91.0691 22.3019
  L 90.7403 18.2151"
/>
<path stroke="#8c8c8c" vector-effect="non-scaling-stroke" d="
  M 94.2437 25.9869
  A 4.55 1.72 109.2 0 0 97.3643 22.2557
  A 4.55 1.72 109.2 0 0 97.2363 17.3931
  A 4.55 1.72 109.2 0 0 94.1157 21.1243
  A 4.55 1.72 109.2 0 0 94.2437 25.9869"
/>
<path stroke="#8c8c8c" vector-effect="non-scaling-stroke" d="
  M 57.9647 19.5605
  A 1.52 1.52 0.0 0 0 56.4263 18.0592
  L 56.2463 18.0614
  A 1.52 1.52 0.0 0 0 54.7450 19.5998
  L 54.7953 23.7195
  A 1.52 1.52 0.0 0 0 56.3337 25.2208
  L 56.5137 25.2186
  A 1.52 1.52 0.0 0 0 58.0150 23.6802
  L 57.9647 19.5605"
/>
<path stroke="#8c8c8c" vector-effect="non-scaling-stroke" d="
  M 63.7540 20.1642
  A 1.58 1.58 0.0 0 0 62.7500 18.1680
  L 62.6171 18.1241
  A 1.58 1.58 0.0 0 0 60.6209 19.1281
  L 58.8060 24.6158
  A 1.58 1.58 0.0 0 0 59.8100 26.6120
  L 59.9429 26.6559
  A 1.58 1.58 0.0 0 0 61.9391 25.6519
  L 63.7540 20.1642"
/>
<path stroke="#8c8c8c" vector-effect="non-scaling-stroke" d="
  M 358.23 19.69
  Q 357.72 17.31 355.39 18.24
  A 0.90 0.82 85.5 0 0 354.86 18.93
  Q 354.00 24.54 354.86 30.13
  Q 355.02 31.17 355.60 31.63
  Q 356.58 32.39 357.59 31.53
  A 1.26 0.89 77.4 0 0 357.94 30.69
  L 358.15 24.69
  A 0.58 0.52 -88.4 0 1 358.68 24.13
  L 366.69 24.24
  A 0.58 0.50 89.9 0 1 367.18 24.81
  L 367.23 32.00
  A 1.02 0.85 -77.4 0 0 367.64 32.80
  Q 368.33 33.24 369.04 32.91
  Q 369.65 32.62 369.92 31.66
  Q 371.34 26.71 370.80 21.98
  A 1.99 1.95 -2.9 0 0 368.84 20.24
  L 358.82 20.20
  A 0.65 0.59 83.4 0 1 358.23 19.69"
/>
<path stroke="#8c8c8c" vector-effect="non-scaling-stroke" d="
  M 126.99 32.71
  L 133.73 40.82
  A 1.17 1.11 70.5 0 0 134.56 41.24
  Q 136.14 41.28 136.49 39.67
  A 1.19 1.00 36.0 0 0 136.27 38.78
  L 129.31 29.63
  A 0.71 0.70 41.7 0 1 129.26 28.82
  Q 132.18 24.00 134.56 22.56
  Q 136.67 21.29 134.59 19.52
  A 1.51 1.36 41.7 0 0 132.60 19.53
  L 126.89 25.70
  A 0.45 0.44 -45.4 0 1 126.23 25.71
  L 120.37 19.34
  A 0.83 0.77 -29.6 0 0 119.52 19.14
  Q 116.62 20.12 118.51 22.36
  Q 119.26 23.24 119.32 23.31
  Q 121.45 26.10 123.76 28.76
  A 0.86 0.86 43.5 0 1 123.79 29.84
  L 117.37 38.24
  A 1.49 1.48 -56.3 0 0 117.80 40.43
  Q 119.94 41.66 121.37 39.56
  Q 123.76 36.05 126.38 32.70
  A 0.40 0.38 44.3 0 1 126.99 32.71"
/>
<path stroke="#8c8c8c" vector-effect="non-scaling-stroke" d="
  M 72.40 48.35
  L 76.19 48.15
  A 0.74 0.63 -12.1 0 1 76.88 48.52
  Q 78.28 51.64 79.56 48.71
  A 1.89 0.89 70.2 0 0 79.65 47.76
  L 78.77 41.00
  A 1.19 0.77 -84.9 0 0 78.35 40.20
  Q 77.54 39.69 76.82 40.11
  Q 76.21 40.48 75.99 41.52
  Q 75.75 42.74 75.70 43.99
  Q 75.68 44.52 75.49 44.84
  Q 75.00 45.65 74.46 44.99
  Q 74.19 44.65 74.17 44.06
  Q 73.97 34.82 75.80 25.76
  Q 76.31 23.24 73.91 23.80
  A 1.01 0.89 -84.2 0 0 73.25 24.41
  Q 71.12 30.03 70.97 35.99
  Q 70.90 38.42 70.78 41.49
  Q 70.67 44.25 71.00 47.01
  A 1.52 1.32 84.9 0 0 72.40 48.35"
/>
<path stroke="#8c8c8c" vector-effect="non-scaling-stroke" d="
  M 390.47 32.31
  Q 391.31 28.02 390.62 24.90
  A 1.11 1.03 82.7 0 0 389.59 24.04
  L 380.30 24.22
  A 0.88 0.81 89.7 0 0 379.50 25.10
  Q 379.50 36.62 379.50 47.59
  Q 379.50 51.14 379.56 51.40
  Q 380.09 53.78 383.25 53.79
  Q 387.35 53.80 391.37 53.69
  Q 393.53 53.63 394.00 51.52
  Q 395.15 46.30 395.93 41.03
  Q 396.40 37.88 393.06 37.69
  Q 388.44 37.42 383.81 37.44
  A 0.76 0.68 -8.6 0 1 383.11 36.98
  Q 382.74 36.00 383.11 35.01
  A 0.82 0.64 6.3 0 1 383.82 34.57
  L 388.28 34.34
  Q 390.08 34.24 390.47 32.31"
/>
<path stroke="#8c8c8c" vector-effect="non-scaling-stroke" d="
  M 81.3368 26.1038
  A 1.05 1.05 0.0 0 0 80.1524 25.2081
  L 78.9836 25.3703
  A 1.05 1.05 0.0 0 0 78.0879 26.5547
  L 80.3832 43.0962
  A 1.05 1.05 0.0 0 0 81.5676 43.9919
  L 82.7364 43.8297
  A 1.05 1.05 0.0 0 0 83.6321 42.6453
  L 81.3368 26.1038"
/>
<path stroke="#8c8c8c" vector-effect="non-scaling-stroke" d="
  M 229.4458 26.8823
  A 1.61 1.61 0.0 0 0 227.8190 25.2893
  L 227.5991 25.2916
  A 1.61 1.61 0.0 0 0 226.0060 26.9183
  L 226.1342 39.1577
  A 1.61 1.61 0.0 0 0 227.7610 40.7507
  L 227.9809 40.7484
  A 1.61 1.61 0.0 0 0 229.5740 39.1217
  L 229.4458 26.8823"
/>
<path stroke="#8c8c8c" vector-effect="non-scaling-stroke" d="
  M 216.6477 27.2439
  A 1.59 1.59 0.0 0 0 214.9002 25.8288
  L 214.6417 25.8560
  A 1.59 1.59 0.0 0 0 213.2266 27.6035
  L 214.5123 39.8361
  A 1.59 1.59 0.0 0 0 216.2598 41.2512
  L 216.5183 41.2240
  A 1.59 1.59 0.0 0 0 217.9334 39.4765
  L 216.6477 27.2439"
/>
<path stroke="#8c8c8c" vector-effect="non-scaling-stroke" d="
  M 363.55 42.19
  L 362.79 28.26
  A 1.08 0.88 -79.0 0 0 362.36 27.45
  Q 361.58 26.97 360.69 27.29
  A 0.85 0.71 84.2 0 0 360.21 28.00
  Q 359.50 36.89 360.48 45.57
  A 1.53 1.53 -6.3 0 0 362.17 46.92
  Q 366.11 46.46 368.11 44.14
  Q 368.66 43.50 368.68 42.84
  Q 368.72 41.75 367.56 41.59
  Q 367.41 41.57 366.63 41.82
  L 364.07 42.65
  A 0.48 0.40 80.8 0 1 363.55 42.19"
/>
<path stroke="#8c8c8c" vector-effect="non-scaling-stroke" d="
  M 99.9140 29.4970
  A 1.35 1.35 0.0 0 0 98.5854 28.1260
  L 87.6667 27.9544
  A 1.35 1.35 0.0 0 0 86.2957 29.2831
  L 86.2860 29.9030
  A 1.35 1.35 0.0 0 0 87.6146 31.2740
  L 98.5333 31.4456
  A 1.35 1.35 0.0 0 0 99.9043 30.1169
  L 99.9140 29.4970"
/>
<path stroke="#8c8c8c" vector-effect="non-scaling-stroke" d="
  M 59.80 32.29
  Q 61.20 32.23 62.59 32.24
  Q 63.76 32.24 64.29 31.80
  Q 65.18 31.06 64.65 29.76
  A 0.89 0.80 -6.2 0 0 63.94 29.25
  Q 57.69 28.49 52.81 29.31
  Q 50.09 29.77 51.30 32.00
  A 0.86 0.81 -14.6 0 0 52.07 32.42
  L 56.43 32.25
  A 0.61 0.61 -87.2 0 1 57.05 32.94
  L 56.61 36.32
  A 0.65 0.61 -0.9 0 1 56.06 36.85
  L 53.30 37.21
  A 0.86 0.82 -83.9 0 0 52.63 37.78
  Q 51.65 40.57 55.25 39.96
  A 1.37 1.28 83.0 0 1 56.75 41.22
  L 57.42 49.51
  A 1.01 1.00 13.7 0 0 57.90 50.29
  Q 58.98 50.94 60.04 50.25
  A 0.94 0.84 73.3 0 0 60.42 49.44
  L 59.95 40.75
  A 0.75 0.74 -86.9 0 1 60.81 39.97
  Q 62.56 40.25 63.98 39.66
  A 1.01 0.97 -6.7 0 0 64.56 38.95
  Q 65.10 36.21 61.36 36.81
  A 1.21 1.20 88.2 0 1 59.97 35.50
  Q 60.13 33.94 59.55 32.74
  A 0.31 0.30 75.3 0 1 59.80 32.29"
/>
<path stroke="#8c8c8c" vector-effect="non-scaling-stroke" d="
  M 90.68 40.81
  L 90.97 51.50
  A 0.93 0.85 -77.2 0 0 91.41 52.27
  Q 92.42 52.82 93.49 52.40
  A 0.78 0.69 80.9 0 0 93.94 51.69
  L 94.05 41.66
  A 1.53 1.53 3.7 0 1 95.76 40.16
  Q 100.01 40.67 99.33 37.79
  A 0.79 0.66 83.3 0 0 98.70 37.20
  L 94.99 37.00
  A 0.78 0.76 -86.4 0 1 94.27 36.16
  L 94.50 33.06
  A 0.88 0.69 17.5 0 0 94.00 32.33
  Q 90.87 30.79 91.19 34.94
  Q 91.37 37.30 89.01 37.05
  Q 84.74 36.60 85.98 39.62
  A 0.82 0.82 -9.8 0 0 86.69 40.12
  L 90.19 40.32
  A 0.51 0.50 0.6 0 1 90.68 40.81"
/>
<path stroke="#8c8c8c" vector-effect="non-scaling-stroke" d="
  M 31.78 40.86
  Q 31.71 38.77 31.77 36.69
  Q 31.83 34.52 29.41 35.27
  A 0.87 0.82 86.9 0 0 28.84 35.94
  Q 28.25 39.26 28.88 43.34
  A 0.79 0.78 82.3 0 0 29.74 44.00
  Q 31.89 43.76 31.78 40.86"
/>
<path stroke="#8c8c8c" vector-effect="non-scaling-stroke" d="
  M 19.94 47.50
  L 15.02 48.55
  A 0.71 0.65 85.4 0 0 14.51 49.21
  Q 14.43 51.60 16.12 51.28
  Q 17.42 51.03 17.52 51.02
  Q 26.80 50.48 36.05 49.59
  Q 36.10 49.59 37.95 49.54
  Q 40.57 49.47 39.19 47.02
  A 1.41 1.39 73.0 0 0 37.86 46.30
  L 23.45 47.32
  A 0.53 0.47 84.7 0 1 22.94 46.84
  L 22.10 38.52
  Q 21.89 36.39 19.93 37.54
  Q 18.65 38.28 18.96 40.26
  Q 19.50 43.63 20.32 46.95
  A 0.48 0.45 -12.6 0 1 19.94 47.50"
/>
<path stroke="#8c8c8c" vector-effect="non-scaling-stroke" d="
  M 340.15 42.27
  Q 339.64 45.88 337.55 48.84
  A 1.36 0.96 -39.4 0 0 337.30 49.75
  Q 337.50 50.87 338.46 49.70
  Q 341.06 46.51 341.18 42.36
  Q 341.19 42.02 341.06 41.78
  Q 340.74 41.22 340.37 41.65
  Q 340.20 41.86 340.15 42.27"
/>
<path stroke="#8c8c8c" vector-effect="non-scaling-stroke" d="
  M 345.19 45.67
  Q 344.10 48.35 342.61 50.82
  Q 342.03 51.78 342.78 51.64
  Q 343.04 51.59 343.28 51.38
  Q 345.96 49.10 345.77 45.77
  Q 345.69 44.47 345.19 45.67"
/>
<path stroke="#8c8c8c" vector-effect="non-scaling-stroke" d="
  M 340.81 20.57
  Q 342.29 19.08 342.03 17.00
  Q 341.56 13.20 343.36 10.19
  Q 344.57 8.16 342.72 9.48
  Q 342.47 9.66 342.23 9.97
  Q 340.51 12.21 338.21 11.57
  Q 337.36 11.33 334.65 10.40
  Q 331.80 9.42 331.97 5.91
  A 0.68 0.49 -80.8 0 0 331.65 5.27
  Q 331.27 5.14 331.21 5.77
  Q 330.92 8.91 326.58 10.94
  A 2.94 2.94 -5.8 0 0 324.95 12.93
  Q 324.00 16.81 328.34 17.58
  Q 328.37 17.59 329.80 17.70
  Q 332.61 17.93 333.23 20.70
  A 1.07 0.92 -85.9 0 0 333.76 21.41
  Q 338.02 23.40 340.81 20.57"
/>
<path stroke="#8c8c8c" vector-effect="non-scaling-stroke" d="
  M 319.94 21.93
  L 319.93 30.31
  A 0.55 0.51 -89.5 0 0 320.43 30.86
  L 327.44 30.97
  A 0.60 0.60 3.2 0 0 328.04 30.44
  L 328.99 21.99
  A 0.60 0.55 10.1 0 0 328.52 21.38
  Q 324.48 20.43 320.43 21.32
  A 0.63 0.62 -6.4 0 0 319.94 21.93"
/>
<path stroke="#8c8c8c" vector-effect="non-scaling-stroke" d="
  M 329.25 12.36
  Q 327.82 11.78 328.32 13.78
  A 0.72 0.71 61.9 0 0 329.49 14.14
  Q 330.77 12.97 329.25 12.36"
/>
<path stroke="#8c8c8c" vector-effect="non-scaling-stroke" d="
  M 338.97 16.00
  A 0.97 0.97 0.0 0 0 338.00 15.03
  A 0.97 0.97 0.0 0 0 337.03 16.00
  A 0.97 0.97 0.0 0 0 338.00 16.97
  A 0.97 0.97 0.0 0 0 338.97 16.00"
/>
<path stroke="#8c8c8c" vector-effect="non-scaling-stroke" d="
  M 332.21 15.88
  Q 332.56 19.21 332.80 15.88
  Q 332.82 15.67 332.74 15.51
  Q 332.51 14.96 332.27 15.49
  Q 332.19 15.66 332.21 15.88"
/>
<path stroke="#8c8c8c" vector-effect="non-scaling-stroke" d="
  M 210.37 19.30
  Q 213.55 20.39 217.95 19.81
  A 3.35 3.32 54.7 0 1 219.89 20.15
  Q 222.61 21.55 221.25 19.34
  A 1.11 1.10 -35.5 0 1 221.50 17.89
  Q 226.14 14.14 221.81 9.94
  Q 217.85 6.10 213.23 7.45
  Q 209.02 8.68 207.44 13.19
  Q 206.62 15.51 207.51 17.17
  Q 208.26 18.58 210.37 19.30"
/>
<path stroke="#8c8c8c" vector-effect="non-scaling-stroke" d="
  M 220.4500 12.7983
  A 0.85 0.74 74.3 0 0 220.9324 11.7798
  A 0.85 0.74 74.3 0 0 219.9900 11.1617
  A 0.85 0.74 74.3 0 0 219.5076 12.1802
  A 0.85 0.74 74.3 0 0 220.4500 12.7983"
/>
<path stroke="#8c8c8c" vector-effect="non-scaling-stroke" d="
  M 214.64 14.27
  Q 214.96 14.35 215.20 14.15
  A 0.60 0.49 49.9 0 0 215.19 13.36
  Q 214.26 12.29 214.19 13.55
  A 0.71 0.58 -82.7 0 0 214.64 14.27"
/>
<path stroke="#8c8c8c" vector-effect="non-scaling-stroke" d="
  M 210.30 15.67
  Q 211.81 15.01 210.18 14.75
  A 0.89 0.77 20.3 0 0 209.35 15.06
  Q 208.99 15.56 209.55 15.74
  Q 209.89 15.84 210.30 15.67"
/>
<path stroke="#8c8c8c" vector-effect="non-scaling-stroke" d="
  M 289.95 38.08
  Q 291.09 25.89 289.36 12.69
  A 1.34 1.34 0.6 0 0 288.23 11.54
  Q 283.03 10.74 278.00 10.73
  Q 269.75 10.71 260.51 10.75
  A 0.77 0.76 -0.7 0 0 259.75 11.52
  L 260.30 46.19
  A 0.53 0.53 90.0 0 0 260.82 46.71
  L 287.46 46.98
  A 1.28 1.25 -83.9 0 0 288.70 45.95
  Q 289.65 41.31 289.95 38.08"
/>
<path stroke="#8c8c8c" vector-effect="non-scaling-stroke" d="
  M 271.70 14.95
  Q 272.81 10.75 269.04 11.68
  A 0.90 0.82 -1.2 0 0 268.40 12.29
  L 265.58 23.75
  A 0.97 0.85 -63.9 0 0 265.82 24.64
  Q 266.92 25.63 269.51 24.22
  A 0.33 0.32 -35.9 0 1 269.90 24.28
  L 271.98 26.36
  A 0.73 0.72 49.7 0 1 271.89 27.47
  Q 269.76 28.97 267.54 30.45
  Q 267.48 30.49 266.80 30.86
  Q 265.44 31.61 266.32 33.19
  A 1.71 1.68 59.1 0 0 268.73 33.82
  L 274.94 29.76
  A 1.64 1.60 -44.7 0 1 276.72 29.75
  Q 278.93 31.19 281.68 32.33
  Q 283.64 33.14 284.14 31.36
  A 1.66 1.64 -68.3 0 0 283.33 29.45
  L 278.96 27.14
  A 1.09 1.08 31.0 0 1 278.56 25.57
  Q 280.93 22.07 281.69 19.19
  Q 282.34 16.72 279.98 16.42
  L 272.06 15.45
  A 0.42 0.40 10.5 0 1 271.70 14.95"
/>
<path stroke="#8c8c8c" vector-effect="non-scaling-stroke" d="
  M 279.9698 37.7845
  A 1.60 1.60 0.0 0 0 279.5032 35.5704
  L 274.7282 32.4576
  A 1.60 1.60 0.0 0 0 272.5141 32.9242
  L 272.3502 33.1755
  A 1.60 1.60 0.0 0 0 272.8168 35.3896
  L 277.5918 38.5024
  A 1.60 1.60 0.0 0 0 279.8059 38.0358
  L 279.9698 37.7845"
/>
<path stroke="#8c8c8c" vector-effect="non-scaling-stroke" d="
  M 279.5815 42.7498
  A 1.36 1.36 0.0 0 0 278.9617 40.9291
  L 273.2013 38.0946
  A 1.36 1.36 0.0 0 0 271.3805 38.7144
  L 271.0185 39.4502
  A 1.36 1.36 0.0 0 0 271.6383 41.2709
  L 277.3987 44.1054
  A 1.36 1.36 0.0 0 0 279.2195 43.4856
  L 279.5815 42.7498"
/>
<path stroke="#8c8c8c" vector-effect="non-scaling-stroke" d="
  M 274.50 23.59
  A 0.89 0.86 -55.0 0 0 275.88 23.32
  L 277.30 20.48
  A 0.71 0.64 -73.2 0 0 276.82 19.47
  L 271.49 19.00
  Q 269.54 18.83 270.99 20.22
  L 274.50 23.59"
/>
<path stroke="#8c8c8c" vector-effect="non-scaling-stroke" d="
  M 181.58 36.94
  Q 179.57 36.48 178.19 35.19
  Q 177.01 34.09 176.74 31.91
  Q 175.94 25.73 176.31 18.63
  A 0.78 0.75 -88.2 0 0 175.57 17.81
  L 173.32 17.77
  A 0.53 0.48 89.4 0 0 172.83 18.32
  Q 173.11 24.53 173.02 30.75
  Q 172.96 35.18 168.97 36.37
  A 1.08 1.07 -37.1 0 1 168.07 36.25
  Q 165.61 34.69 168.53 32.46
  A 1.89 1.67 -21.6 0 0 169.26 31.02
  L 168.94 18.59
  A 0.63 0.61 -0.9 0 0 168.31 18.00
  L 162.94 18.00
  A 1.22 1.21 -86.2 0 0 161.74 19.06
  Q 160.61 28.01 162.23 38.50
  A 0.95 0.92 -4.5 0 0 163.18 39.28
  L 184.51 38.99
  A 0.94 0.84 14.3 0 0 185.28 38.59
  Q 186.66 36.40 183.61 36.98
  Q 182.59 37.17 181.58 36.94"
/>
<path stroke="#8c8c8c" vector-effect="non-scaling-stroke" d="
  M 181.29 32.91
  L 184.70 33.70
  A 1.52 1.23 72.2 0 1 185.48 34.21
  Q 186.56 35.49 186.92 33.58
  Q 188.31 26.35 187.75 19.06
  A 0.78 0.72 89.4 0 0 187.07 18.34
  L 181.04 17.98
  A 0.99 0.97 -89.5 0 0 180.02 19.01
  L 180.47 31.98
  A 1.06 0.98 5.9 0 0 181.29 32.91"
/>
<path stroke="#8c8c8c" vector-effect="non-scaling-stroke" d="
  M 33.2523 19.5749
  A 0.59 0.59 0.0 0 0 32.6613 18.9860
  L 16.5813 19.0140
  A 0.59 0.59 0.0 0 0 15.9923 19.6051
  L 16.0077 28.4251
  A 0.59 0.59 0.0 0 0 16.5987 29.0140
  L 32.6787 28.9860
  A 0.59 0.59 0.0 0 0 33.2677 28.3949
  L 33.2523 19.5749"
/>
<path stroke="#8c8c8c" vector-effect="non-scaling-stroke" d="
  M 31.18 20.84
  Q 30.74 19.47 30.16 21.03
  A 0.97 0.81 -56.6 0 0 30.26 21.92
  Q 30.73 22.48 31.11 21.78
  A 1.23 1.09 52.6 0 0 31.18 20.84"
/>
<path stroke="#8c8c8c" vector-effect="non-scaling-stroke" d="
  M 18.65 22.59
  Q 18.10 21.15 17.62 22.77
  A 0.92 0.75 -63.3 0 0 17.81 23.64
  Q 18.24 24.05 18.59 23.51
  A 1.10 0.91 54.2 0 0 18.65 22.59"
/>
<path stroke="#8c8c8c" vector-effect="non-scaling-stroke" d="
  M 23.33 26.79
  Q 26.95 29.63 28.44 25.90
  Q 28.75 25.12 28.10 25.65
  Q 25.69 27.61 23.75 25.96"
/>
<path stroke="#8c8c8c" vector-effect="non-scaling-stroke" d="
  M 23.75 25.96
  Q 23.75 24.48 23.63 23.01
  Q 23.50 21.44 23.33 23.01
  Q 23.13 24.96 22.44 26.79
  A 0.61 0.40 -71.3 0 0 22.64 27.55
  Q 23.02 27.63 23.33 26.79"
/>
<path stroke="#191919" vector-effect="non-scaling-stroke" d="
  M 23.75 25.96
  L 23.33 26.79"
/>
<path stroke="#8c8c8c" vector-effect="non-scaling-stroke" d="
  M 387.4200 27.9061
  A 0.47 0.47 0.0 0 0 386.9387 27.4477
  L 383.4397 27.5333
  A 0.47 0.47 0.0 0 0 382.9813 28.0146
  L 383.0400 30.4139
  A 0.47 0.47 0.0 0 0 383.5213 30.8723
  L 387.0203 30.7867
  A 0.47 0.47 0.0 0 0 387.4787 30.3054
  L 387.4200 27.9061"
/>
<path stroke="#8c8c8c" vector-effect="non-scaling-stroke" d="
  M 390.79 48.95
  L 391.89 42.09
  A 0.99 0.92 3.0 0 0 390.86 41.03
  L 384.08 41.31
  A 1.13 1.12 -1.3 0 0 383.00 42.43
  L 383.00 49.34
  A 0.66 0.66 -0.1 0 0 383.66 50.00
  L 389.47 50.00
  A 1.35 1.23 3.9 0 0 390.79 48.95"
/>
</g>
<path  d="
  M 0.00 0.00
  L 831.00 0.00
  L 831.00 56.00
  L 0.00 56.00
  L 0.00 0.00
  Z
  M 333.18 8.22
  L 333.00 5.23
  A 1.22 1.05 82.5 0 0 331.70 4.07
  Q 330.42 4.38 329.81 6.75
  Q 329.37 8.46 327.68 9.02
  Q 322.07 10.88 324.54 16.55
  A 0.42 0.34 75.6 0 1 324.27 17.13
  L 320.77 17.08
  A 0.87 0.78 -89.7 0 1 320.00 16.21
  L 320.00 10.00
  A 0.71 0.66 -82.4 0 0 319.53 9.33
  Q 318.39 9.00 317.28 9.38
  A 0.77 0.74 -7.5 0 0 316.75 10.05
  L 316.43 16.44
  A 0.57 0.52 -89.9 0 1 315.94 16.97
  Q 312.16 17.25 308.37 17.49
  Q 307.02 17.58 306.35 18.01
  Q 304.88 18.96 306.22 20.57
  A 1.12 1.06 -19.0 0 0 307.06 20.95
  L 315.48 20.99
  A 0.53 0.52 0.6 0 1 316.00 21.51
  L 316.00 30.33
  A 0.67 0.67 -0.4 0 1 315.33 31.00
  Q 311.38 31.00 307.25 31.02
  Q 303.89 31.04 304.46 34.19
  A 0.61 0.59 -4.4 0 0 305.06 34.69
  L 315.43 34.81
  A 0.51 0.50 0.0 0 1 315.94 35.31
  Q 316.05 43.53 316.00 51.75
  Q 315.98 54.78 318.55 53.71
  A 0.80 0.78 80.2 0 0 319.03 53.01
  L 319.80 35.31
  A 0.54 0.50 -88.3 0 1 320.31 34.79
  L 333.82 35.14
  A 0.59 0.54 88.8 0 1 334.35 35.70
  Q 334.59 40.05 332.44 43.44
  Q 331.32 45.19 329.06 45.31
  A 1.64 1.16 15.6 0 0 328.17 45.63
  Q 325.74 47.74 329.25 48.50
  Q 332.73 49.25 334.96 45.72
  Q 338.57 40.01 337.75 33.30
  A 1.20 1.16 -75.3 0 0 337.30 32.50
  Q 335.02 30.76 332.05 30.90
  A 0.43 0.41 2.6 0 1 331.60 30.43
  L 332.87 23.22
  A 0.54 0.47 10.1 0 1 333.49 22.85
  Q 343.81 24.81 343.34 14.95
  Q 343.28 13.58 343.64 12.60
  Q 344.06 11.46 344.59 10.36
  Q 345.04 9.45 344.93 8.93
  Q 344.72 7.84 343.05 8.40
  Q 341.50 8.91 339.87 10.49
  A 1.09 0.88 30.4 0 1 338.80 10.65
  L 333.80 8.80
  A 0.93 0.48 15.7 0 1 333.18 8.22
  Z
  M 387.2370 9.0700
  A 4.02 1.93 34.9 0 0 385.0442 5.1871
  A 4.02 1.93 34.9 0 0 380.6430 4.4700
  A 4.02 1.93 34.9 0 0 382.8358 8.3529
  A 4.02 1.93 34.9 0 0 387.2370 9.0700
  Z
  M 91.69 12.97
  L 85.69 12.71
  A 1.63 1.48 1.8 0 0 84.00 14.15
  Q 83.96 16.08 85.77 16.07
  Q 87.16 16.06 87.23 16.07
  Q 91.99 16.49 96.76 16.27
  A 1.18 1.02 15.8 0 0 97.59 15.88
  Q 98.77 14.46 97.36 13.56
  Q 96.94 13.30 96.08 13.17
  Q 95.40 13.07 94.73 12.89
  A 0.34 0.31 -63.5 0 1 94.58 12.37
  Q 95.38 11.23 94.31 9.94
  Q 92.02 7.18 90.87 6.08
  A 0.96 0.94 60.1 0 0 90.01 5.84
  Q 86.88 6.52 89.31 8.94
  Q 91.14 10.76 91.98 12.48
  A 0.34 0.32 77.2 0 1 91.69 12.97
  Z
  M 222.38 18.43
  Q 227.19 14.22 222.94 9.31
  Q 218.31 3.96 212.16 6.49
  Q 209.87 7.44 208.40 9.25
  Q 206.82 11.19 206.31 13.56
  Q 205.14 18.99 210.50 20.75
  Q 212.04 21.26 218.25 21.00
  Q 218.85 20.98 220.79 21.80
  A 1.42 1.10 41.3 0 0 221.72 21.86
  Q 223.95 21.09 222.34 19.13
  A 0.52 0.49 50.0 0 1 222.38 18.43
  Z
  M 37.9222 8.5888
  A 1.31 1.31 0.0 0 0 36.6706 7.2229
  L 11.8742 6.1403
  A 1.31 1.31 0.0 0 0 10.5083 7.3919
  L 10.4778 8.0912
  A 1.31 1.31 0.0 0 0 11.7294 9.4571
  L 36.5258 10.5397
  A 1.31 1.31 0.0 0 0 37.8917 9.2881
  L 37.9222 8.5888
  Z
  M 57.19 13.95
  L 51.05 13.85
  A 0.68 0.62 8.5 0 0 50.40 14.28
  Q 49.45 17.37 52.68 17.20
  Q 54.84 17.08 54.94 17.09
  Q 59.95 17.17 64.95 17.03
  Q 65.94 17.00 66.41 16.54
  Q 67.21 15.77 66.50 14.71
  A 1.12 1.04 73.8 0 0 65.70 14.23
  L 61.81 13.93
  A 0.79 0.73 79.3 0 1 61.17 13.46
  L 58.82 8.12
  A 1.34 0.97 4.7 0 0 58.10 7.50
  Q 55.07 6.34 55.71 9.07
  Q 55.85 9.66 56.64 11.23
  Q 57.18 12.30 57.55 13.46
  A 0.38 0.37 81.6 0 1 57.19 13.95
  Z
  M 293.87 30.57
  Q 294.14 20.27 292.69 10.12
  Q 292.42 8.22 290.51 8.00
  Q 275.18 6.28 259.79 7.22
  Q 259.66 7.22 258.72 7.23
  Q 256.04 7.25 256.18 9.86
  Q 256.25 11.09 256.24 11.15
  Q 256.11 29.22 256.78 48.04
  Q 256.86 50.33 259.10 50.34
  L 291.35 50.50
  A 0.57 0.57 -85.2 0 0 291.91 50.02
  Q 293.63 40.10 293.87 30.57
  Z
  M 375.32 18.06
  A 0.98 0.83 81.7 0 1 375.98 17.00
  L 389.86 14.53
  A 1.42 1.37 84.1 0 1 391.47 15.89
  Q 391.55 18.03 391.28 20.98
  Q 391.09 23.07 392.67 23.43
  A 1.70 1.69 9.4 0 0 394.73 21.96
  Q 395.11 18.40 395.01 14.97
  Q 394.95 12.91 393.93 11.99
  Q 392.62 10.82 390.50 11.03
  Q 382.97 11.75 375.40 13.02
  A 1.29 1.29 63.9 0 1 374.26 12.64
  Q 371.39 9.66 371.00 13.50
  Q 370.81 15.33 373.11 24.61
  Q 373.37 25.66 373.88 26.09
  Q 374.73 26.80 375.78 26.21
  A 0.80 0.77 -18.4 0 0 376.18 25.44
  L 375.32 18.06
  Z
  M 242.9763 12.6073
  A 0.32 0.32 0.0 0 0 242.6558 12.2878
  L 240.1158 12.2922
  A 0.32 0.32 0.0 0 0 239.7963 12.6128
  L 239.8637 51.1927
  A 0.32 0.32 0.0 0 0 240.1842 51.5122
  L 242.7242 51.5078
  A 0.32 0.32 0.0 0 0 243.0437 51.1872
  L 242.9763 12.6073
  Z
  M 189.33 15.10
  Q 176.20 13.50 160.85 14.60
  Q 158.72 14.75 158.35 16.86
  Q 156.34 28.38 158.90 41.52
  A 1.76 1.75 -5.7 0 0 160.64 42.93
  L 187.44 42.69
  A 0.73 0.72 9.3 0 0 188.11 42.22
  Q 192.33 30.56 191.22 17.07
  Q 191.08 15.31 189.33 15.10
  Z
  M 12.54 27.29
  L 13.00 31.27
  A 1.41 1.28 87.5 0 0 14.23 32.51
  Q 23.81 32.95 33.58 32.33
  Q 35.09 32.23 35.75 31.63
  Q 36.74 30.73 36.52 29.17
  A 1.05 1.04 -88.8 0 1 37.73 28.00
  Q 39.42 28.29 41.10 28.48
  Q 41.27 28.50 41.38 28.44
  Q 41.67 28.26 41.26 28.05
  Q 39.76 27.26 38.03 27.19
  A 1.02 1.02 -4.9 0 1 37.09 26.40
  Q 36.37 23.17 38.78 22.52
  Q 39.43 22.35 39.58 22.29
  Q 41.71 21.47 39.81 21.34
  Q 39.39 21.31 38.87 21.54
  Q 36.51 22.64 36.75 19.25
  Q 37.06 14.89 32.98 15.14
  Q 31.08 15.25 31.01 15.25
  Q 23.44 15.25 14.86 15.25
  Q 12.88 15.25 12.83 16.94
  L 12.57 25.07
  A 1.10 1.02 -86.3 0 1 11.44 26.14
  Q 8.47 25.79 8.76 26.54
  A 0.88 0.70 -9.2 0 0 9.57 26.99
  L 11.95 26.90
  A 0.59 0.45 -3.9 0 1 12.54 27.29
  Z
  M 72.48 21.21
  Q 75.11 21.02 78.90 20.80
  Q 79.99 20.74 80.50 20.36
  Q 81.47 19.64 80.77 18.41
  A 1.08 0.88 -8.2 0 0 79.99 17.94
  Q 77.01 17.60 74.01 17.83
  Q 71.37 18.02 69.40 17.17
  A 1.02 1.01 -75.1 0 0 68.00 17.99
  Q 66.40 31.98 65.79 46.03
  Q 65.74 47.29 65.89 47.96
  Q 66.41 50.19 68.34 48.30
  A 1.34 1.28 -21.3 0 0 68.74 47.44
  L 70.33 23.44
  Q 70.47 21.36 72.48 21.21
  Z
  M 90.7403 18.2151
  A 1.32 1.32 0.0 0 0 89.3187 17.0052
  L 88.6808 17.0565
  A 1.32 1.32 0.0 0 0 87.4709 18.4781
  L 87.7997 22.5649
  A 1.32 1.32 0.0 0 0 89.2213 23.7748
  L 89.8592 23.7235
  A 1.32 1.32 0.0 0 0 91.0691 22.3019
  L 90.7403 18.2151
  Z
  M 94.2437 25.9869
  A 4.55 1.72 109.2 0 0 97.3643 22.2557
  A 4.55 1.72 109.2 0 0 97.2363 17.3931
  A 4.55 1.72 109.2 0 0 94.1157 21.1243
  A 4.55 1.72 109.2 0 0 94.2437 25.9869
  Z
  M 57.9647 19.5605
  A 1.52 1.52 0.0 0 0 56.4263 18.0592
  L 56.2463 18.0614
  A 1.52 1.52 0.0 0 0 54.7450 19.5998
  L 54.7953 23.7195
  A 1.52 1.52 0.0 0 0 56.3337 25.2208
  L 56.5137 25.2186
  A 1.52 1.52 0.0 0 0 58.0150 23.6802
  L 57.9647 19.5605
  Z
  M 63.7540 20.1642
  A 1.58 1.58 0.0 0 0 62.7500 18.1680
  L 62.6171 18.1241
  A 1.58 1.58 0.0 0 0 60.6209 19.1281
  L 58.8060 24.6158
  A 1.58 1.58 0.0 0 0 59.8100 26.6120
  L 59.9429 26.6559
  A 1.58 1.58 0.0 0 0 61.9391 25.6519
  L 63.7540 20.1642
  Z
  M 358.23 19.69
  Q 357.72 17.31 355.39 18.24
  A 0.90 0.82 85.5 0 0 354.86 18.93
  Q 354.00 24.54 354.86 30.13
  Q 355.02 31.17 355.60 31.63
  Q 356.58 32.39 357.59 31.53
  A 1.26 0.89 77.4 0 0 357.94 30.69
  L 358.15 24.69
  A 0.58 0.52 -88.4 0 1 358.68 24.13
  L 366.69 24.24
  A 0.58 0.50 89.9 0 1 367.18 24.81
  L 367.23 32.00
  A 1.02 0.85 -77.4 0 0 367.64 32.80
  Q 368.33 33.24 369.04 32.91
  Q 369.65 32.62 369.92 31.66
  Q 371.34 26.71 370.80 21.98
  A 1.99 1.95 -2.9 0 0 368.84 20.24
  L 358.82 20.20
  A 0.65 0.59 83.4 0 1 358.23 19.69
  Z
  M 126.99 32.71
  L 133.73 40.82
  A 1.17 1.11 70.5 0 0 134.56 41.24
  Q 136.14 41.28 136.49 39.67
  A 1.19 1.00 36.0 0 0 136.27 38.78
  L 129.31 29.63
  A 0.71 0.70 41.7 0 1 129.26 28.82
  Q 132.18 24.00 134.56 22.56
  Q 136.67 21.29 134.59 19.52
  A 1.51 1.36 41.7 0 0 132.60 19.53
  L 126.89 25.70
  A 0.45 0.44 -45.4 0 1 126.23 25.71
  L 120.37 19.34
  A 0.83 0.77 -29.6 0 0 119.52 19.14
  Q 116.62 20.12 118.51 22.36
  Q 119.26 23.24 119.32 23.31
  Q 121.45 26.10 123.76 28.76
  A 0.86 0.86 43.5 0 1 123.79 29.84
  L 117.37 38.24
  A 1.49 1.48 -56.3 0 0 117.80 40.43
  Q 119.94 41.66 121.37 39.56
  Q 123.76 36.05 126.38 32.70
  A 0.40 0.38 44.3 0 1 126.99 32.71
  Z
  M 72.40 48.35
  L 76.19 48.15
  A 0.74 0.63 -12.1 0 1 76.88 48.52
  Q 78.28 51.64 79.56 48.71
  A 1.89 0.89 70.2 0 0 79.65 47.76
  L 78.77 41.00
  A 1.19 0.77 -84.9 0 0 78.35 40.20
  Q 77.54 39.69 76.82 40.11
  Q 76.21 40.48 75.99 41.52
  Q 75.75 42.74 75.70 43.99
  Q 75.68 44.52 75.49 44.84
  Q 75.00 45.65 74.46 44.99
  Q 74.19 44.65 74.17 44.06
  Q 73.97 34.82 75.80 25.76
  Q 76.31 23.24 73.91 23.80
  A 1.01 0.89 -84.2 0 0 73.25 24.41
  Q 71.12 30.03 70.97 35.99
  Q 70.90 38.42 70.78 41.49
  Q 70.67 44.25 71.00 47.01
  A 1.52 1.32 84.9 0 0 72.40 48.35
  Z
  M 390.47 32.31
  Q 391.31 28.02 390.62 24.90
  A 1.11 1.03 82.7 0 0 389.59 24.04
  L 380.30 24.22
  A 0.88 0.81 89.7 0 0 379.50 25.10
  Q 379.50 36.62 379.50 47.59
  Q 379.50 51.14 379.56 51.40
  Q 380.09 53.78 383.25 53.79
  Q 387.35 53.80 391.37 53.69
  Q 393.53 53.63 394.00 51.52
  Q 395.15 46.30 395.93 41.03
  Q 396.40 37.88 393.06 37.69
  Q 388.44 37.42 383.81 37.44
  A 0.76 0.68 -8.6 0 1 383.11 36.98
  Q 382.74 36.00 383.11 35.01
  A 0.82 0.64 6.3 0 1 383.82 34.57
  L 388.28 34.34
  Q 390.08 34.24 390.47 32.31
  Z
  M 81.3368 26.1038
  A 1.05 1.05 0.0 0 0 80.1524 25.2081
  L 78.9836 25.3703
  A 1.05 1.05 0.0 0 0 78.0879 26.5547
  L 80.3832 43.0962
  A 1.05 1.05 0.0 0 0 81.5676 43.9919
  L 82.7364 43.8297
  A 1.05 1.05 0.0 0 0 83.6321 42.6453
  L 81.3368 26.1038
  Z
  M 229.4458 26.8823
  A 1.61 1.61 0.0 0 0 227.8190 25.2893
  L 227.5991 25.2916
  A 1.61 1.61 0.0 0 0 226.0060 26.9183
  L 226.1342 39.1577
  A 1.61 1.61 0.0 0 0 227.7610 40.7507
  L 227.9809 40.7484
  A 1.61 1.61 0.0 0 0 229.5740 39.1217
  L 229.4458 26.8823
  Z
  M 216.6477 27.2439
  A 1.59 1.59 0.0 0 0 214.9002 25.8288
  L 214.6417 25.8560
  A 1.59 1.59 0.0 0 0 213.2266 27.6035
  L 214.5123 39.8361
  A 1.59 1.59 0.0 0 0 216.2598 41.2512
  L 216.5183 41.2240
  A 1.59 1.59 0.0 0 0 217.9334 39.4765
  L 216.6477 27.2439
  Z
  M 363.55 42.19
  L 362.79 28.26
  A 1.08 0.88 -79.0 0 0 362.36 27.45
  Q 361.58 26.97 360.69 27.29
  A 0.85 0.71 84.2 0 0 360.21 28.00
  Q 359.50 36.89 360.48 45.57
  A 1.53 1.53 -6.3 0 0 362.17 46.92
  Q 366.11 46.46 368.11 44.14
  Q 368.66 43.50 368.68 42.84
  Q 368.72 41.75 367.56 41.59
  Q 367.41 41.57 366.63 41.82
  L 364.07 42.65
  A 0.48 0.40 80.8 0 1 363.55 42.19
  Z
  M 99.9140 29.4970
  A 1.35 1.35 0.0 0 0 98.5854 28.1260
  L 87.6667 27.9544
  A 1.35 1.35 0.0 0 0 86.2957 29.2831
  L 86.2860 29.9030
  A 1.35 1.35 0.0 0 0 87.6146 31.2740
  L 98.5333 31.4456
  A 1.35 1.35 0.0 0 0 99.9043 30.1169
  L 99.9140 29.4970
  Z
  M 59.80 32.29
  Q 61.20 32.23 62.59 32.24
  Q 63.76 32.24 64.29 31.80
  Q 65.18 31.06 64.65 29.76
  A 0.89 0.80 -6.2 0 0 63.94 29.25
  Q 57.69 28.49 52.81 29.31
  Q 50.09 29.77 51.30 32.00
  A 0.86 0.81 -14.6 0 0 52.07 32.42
  L 56.43 32.25
  A 0.61 0.61 -87.2 0 1 57.05 32.94
  L 56.61 36.32
  A 0.65 0.61 -0.9 0 1 56.06 36.85
  L 53.30 37.21
  A 0.86 0.82 -83.9 0 0 52.63 37.78
  Q 51.65 40.57 55.25 39.96
  A 1.37 1.28 83.0 0 1 56.75 41.22
  L 57.42 49.51
  A 1.01 1.00 13.7 0 0 57.90 50.29
  Q 58.98 50.94 60.04 50.25
  A 0.94 0.84 73.3 0 0 60.42 49.44
  L 59.95 40.75
  A 0.75 0.74 -86.9 0 1 60.81 39.97
  Q 62.56 40.25 63.98 39.66
  A 1.01 0.97 -6.7 0 0 64.56 38.95
  Q 65.10 36.21 61.36 36.81
  A 1.21 1.20 88.2 0 1 59.97 35.50
  Q 60.13 33.94 59.55 32.74
  A 0.31 0.30 75.3 0 1 59.80 32.29
  Z
  M 90.68 40.81
  L 90.97 51.50
  A 0.93 0.85 -77.2 0 0 91.41 52.27
  Q 92.42 52.82 93.49 52.40
  A 0.78 0.69 80.9 0 0 93.94 51.69
  L 94.05 41.66
  A 1.53 1.53 3.7 0 1 95.76 40.16
  Q 100.01 40.67 99.33 37.79
  A 0.79 0.66 83.3 0 0 98.70 37.20
  L 94.99 37.00
  A 0.78 0.76 -86.4 0 1 94.27 36.16
  L 94.50 33.06
  A 0.88 0.69 17.5 0 0 94.00 32.33
  Q 90.87 30.79 91.19 34.94
  Q 91.37 37.30 89.01 37.05
  Q 84.74 36.60 85.98 39.62
  A 0.82 0.82 -9.8 0 0 86.69 40.12
  L 90.19 40.32
  A 0.51 0.50 0.6 0 1 90.68 40.81
  Z
  M 31.78 40.86
  Q 31.71 38.77 31.77 36.69
  Q 31.83 34.52 29.41 35.27
  A 0.87 0.82 86.9 0 0 28.84 35.94
  Q 28.25 39.26 28.88 43.34
  A 0.79 0.78 82.3 0 0 29.74 44.00
  Q 31.89 43.76 31.78 40.86
  Z
  M 19.94 47.50
  L 15.02 48.55
  A 0.71 0.65 85.4 0 0 14.51 49.21
  Q 14.43 51.60 16.12 51.28
  Q 17.42 51.03 17.52 51.02
  Q 26.80 50.48 36.05 49.59
  Q 36.10 49.59 37.95 49.54
  Q 40.57 49.47 39.19 47.02
  A 1.41 1.39 73.0 0 0 37.86 46.30
  L 23.45 47.32
  A 0.53 0.47 84.7 0 1 22.94 46.84
  L 22.10 38.52
  Q 21.89 36.39 19.93 37.54
  Q 18.65 38.28 18.96 40.26
  Q 19.50 43.63 20.32 46.95
  A 0.48 0.45 -12.6 0 1 19.94 47.50
  Z
  M 340.15 42.27
  Q 339.64 45.88 337.55 48.84
  A 1.36 0.96 -39.4 0 0 337.30 49.75
  Q 337.50 50.87 338.46 49.70
  Q 341.06 46.51 341.18 42.36
  Q 341.19 42.02 341.06 41.78
  Q 340.74 41.22 340.37 41.65
  Q 340.20 41.86 340.15 42.27
  Z
  M 345.19 45.67
  Q 344.10 48.35 342.61 50.82
  Q 342.03 51.78 342.78 51.64
  Q 343.04 51.59 343.28 51.38
  Q 345.96 49.10 345.77 45.77
  Q 345.69 44.47 345.19 45.67
  Z"
/>
<path fill="#191919" d="
  M 333.80 8.80
  L 338.80 10.65
  A 1.09 0.88 30.4 0 0 339.87 10.49
  Q 341.50 8.91 343.05 8.40
  Q 344.72 7.84 344.93 8.93
  Q 345.04 9.45 344.59 10.36
  Q 344.06 11.46 343.64 12.60
  Q 343.28 13.58 343.34 14.95
  Q 343.81 24.81 333.49 22.85
  A 0.54 0.47 10.1 0 0 332.87 23.22
  L 331.60 30.43
  A 0.43 0.41 2.6 0 0 332.05 30.90
  Q 335.02 30.76 337.30 32.50
  A 1.20 1.16 -75.3 0 1 337.75 33.30
  Q 338.57 40.01 334.96 45.72
  Q 332.73 49.25 329.25 48.50
  Q 325.74 47.74 328.17 45.63
  A 1.64 1.16 15.6 0 1 329.06 45.31
  Q 331.32 45.19 332.44 43.44
  Q 334.59 40.05 334.35 35.70
  A 0.59 0.54 88.8 0 0 333.82 35.14
  L 320.31 34.79
  A 0.54 0.50 -88.3 0 0 319.80 35.31
  L 319.03 53.01
  A 0.80 0.78 80.2 0 1 318.55 53.71
  Q 315.98 54.78 316.00 51.75
  Q 316.05 43.53 315.94 35.31
  A 0.51 0.50 0.0 0 0 315.43 34.81
  L 305.06 34.69
  A 0.61 0.59 -4.4 0 1 304.46 34.19
  Q 303.89 31.04 307.25 31.02
  Q 311.38 31.00 315.33 31.00
  A 0.67 0.67 0.2 0 0 316.00 30.33
  L 316.00 21.51
  A 0.53 0.52 0.6 0 0 315.48 20.99
  L 307.06 20.95
  A 1.12 1.06 -19.0 0 1 306.22 20.57
  Q 304.88 18.96 306.35 18.01
  Q 307.02 17.58 308.37 17.49
  Q 312.16 17.25 315.94 16.97
  A 0.57 0.52 -89.9 0 0 316.43 16.44
  L 316.75 10.05
  A 0.77 0.74 -7.5 0 1 317.28 9.38
  Q 318.39 9.00 319.53 9.33
  A 0.71 0.66 -82.4 0 1 320.00 10.00
  L 320.00 16.21
  A 0.87 0.78 -89.7 0 0 320.77 17.08
  L 324.27 17.13
  A 0.42 0.34 75.6 0 0 324.54 16.55
  Q 322.07 10.88 327.68 9.02
  Q 329.37 8.46 329.81 6.75
  Q 330.42 4.38 331.70 4.07
  A 1.22 1.05 82.5 0 1 333.00 5.23
  L 333.18 8.22
  A 0.93 0.48 15.7 0 0 333.80 8.80
  Z
  M 340.81 20.57
  Q 342.29 19.08 342.03 17.00
  Q 341.56 13.20 343.36 10.19
  Q 344.57 8.16 342.72 9.48
  Q 342.47 9.66 342.23 9.97
  Q 340.51 12.21 338.21 11.57
  Q 337.36 11.33 334.65 10.40
  Q 331.80 9.42 331.97 5.91
  A 0.68 0.49 -80.8 0 0 331.65 5.27
  Q 331.27 5.14 331.21 5.77
  Q 330.92 8.91 326.58 10.94
  A 2.94 2.94 -5.8 0 0 324.95 12.93
  Q 324.00 16.81 328.34 17.58
  Q 328.37 17.59 329.80 17.70
  Q 332.61 17.93 333.23 20.70
  A 1.07 0.92 -85.9 0 0 333.76 21.41
  Q 338.02 23.40 340.81 20.57
  Z
  M 319.94 21.93
  L 319.93 30.31
  A 0.55 0.51 -89.5 0 0 320.43 30.86
  L 327.44 30.97
  A 0.60 0.60 3.2 0 0 328.04 30.44
  L 328.99 21.99
  A 0.60 0.55 10.1 0 0 328.52 21.38
  Q 324.48 20.43 320.43 21.32
  A 0.63 0.62 -6.4 0 0 319.94 21.93
  Z"
/>
<ellipse fill="#191919" cx="0.00" cy="0.00" transform="translate(383.94,6.77) rotate(34.9)" rx="4.02" ry="1.93"/>
<path  d="
  M 340.81 20.57
  Q 338.02 23.40 333.76 21.41
  A 1.07 0.92 -85.9 0 1 333.23 20.70
  Q 332.61 17.93 329.80 17.70
  Q 328.37 17.59 328.34 17.58
  Q 324.00 16.81 324.95 12.93
  A 2.94 2.94 -5.8 0 1 326.58 10.94
  Q 330.92 8.91 331.21 5.77
  Q 331.27 5.14 331.65 5.27
  A 0.68 0.49 -80.8 0 1 331.97 5.91
  Q 331.80 9.42 334.65 10.40
  Q 337.36 11.33 338.21 11.57
  Q 340.51 12.21 342.23 9.97
  Q 342.47 9.66 342.72 9.48
  Q 344.57 8.16 343.36 10.19
  Q 341.56 13.20 342.03 17.00
  Q 342.29 19.08 340.81 20.57
  Z
  M 329.25 12.36
  Q 327.82 11.78 328.32 13.78
  A 0.72 0.71 61.9 0 0 329.49 14.14
  Q 330.77 12.97 329.25 12.36
  Z
  M 338.97 16.00
  A 0.97 0.97 0.0 0 0 338.00 15.03
  A 0.97 0.97 0.0 0 0 337.03 16.00
  A 0.97 0.97 0.0 0 0 338.00 16.97
  A 0.97 0.97 0.0 0 0 338.97 16.00
  Z
  M 332.21 15.88
  Q 332.56 19.21 332.80 15.88
  Q 332.82 15.67 332.74 15.51
  Q 332.51 14.96 332.27 15.49
  Q 332.19 15.66 332.21 15.88
  Z"
/>
<path fill="#191919" d="
  M 91.98 12.48
  Q 91.14 10.76 89.31 8.94
  Q 86.88 6.52 90.01 5.84
  A 0.96 0.94 60.1 0 1 90.87 6.08
  Q 92.02 7.18 94.31 9.94
  Q 95.38 11.23 94.58 12.37
  A 0.34 0.31 -63.5 0 0 94.73 12.89
  Q 95.40 13.07 96.08 13.17
  Q 96.94 13.30 97.36 13.56
  Q 98.77 14.46 97.59 15.88
  A 1.18 1.02 15.8 0 1 96.76 16.27
  Q 91.99 16.49 87.23 16.07
  Q 87.16 16.06 85.77 16.07
  Q 83.96 16.08 84.00 14.15
  A 1.63 1.48 1.8 0 1 85.69 12.71
  L 91.69 12.97
  A 0.34 0.32 77.2 0 0 91.98 12.48
  Z"
/>
<path fill="#191919" d="
  M 222.34 19.13
  Q 223.95 21.09 221.72 21.86
  A 1.42 1.10 41.3 0 1 220.79 21.80
  Q 218.85 20.98 218.25 21.00
  Q 212.04 21.26 210.50 20.75
  Q 205.14 18.99 206.31 13.56
  Q 206.82 11.19 208.40 9.25
  Q 209.87 7.44 212.16 6.49
  Q 218.31 3.96 222.94 9.31
  Q 227.19 14.22 222.38 18.43
  A 0.52 0.49 50.0 0 0 222.34 19.13
  Z
  M 210.37 19.30
  Q 213.55 20.39 217.95 19.81
  A 3.35 3.32 54.7 0 1 219.89 20.15
  Q 222.61 21.55 221.25 19.34
  A 1.11 1.10 -35.5 0 1 221.50 17.89
  Q 226.14 14.14 221.81 9.94
  Q 217.85 6.10 213.23 7.45
  Q 209.02 8.68 207.44 13.19
  Q 206.62 15.51 207.51 17.17
  Q 208.26 18.58 210.37 19.30
  Z"
/>
<rect fill="#191919" x="-13.72" y="-1.66" transform="translate(24.20,8.34) rotate(2.5)" width="27.44" height="3.32" rx="1.31"/>
<path fill="#191919" d="
  M 57.55 13.46
  Q 57.18 12.30 56.64 11.23
  Q 55.85 9.66 55.71 9.07
  Q 55.07 6.34 58.10 7.50
  A 1.34 0.97 4.7 0 1 58.82 8.12
  L 61.17 13.46
  A 0.79 0.73 79.3 0 0 61.81 13.93
  L 65.70 14.23
  A 1.12 1.04 73.8 0 1 66.50 14.71
  Q 67.21 15.77 66.41 16.54
  Q 65.94 17.00 64.95 17.03
  Q 59.95 17.17 54.94 17.09
  Q 54.84 17.08 52.68 17.20
  Q 49.45 17.37 50.40 14.28
  A 0.68 0.62 8.5 0 1 51.05 13.85
  L 57.19 13.95
  A 0.38 0.37 81.6 0 0 57.55 13.46
  Z"
/>
<path  d="
  M 207.51 17.17
  Q 206.62 15.51 207.44 13.19
  Q 209.02 8.68 213.23 7.45
  Q 217.85 6.10 221.81 9.94
  Q 226.14 14.14 221.50 17.89
  A 1.11 1.10 -35.5 0 0 221.25 19.34
  Q 222.61 21.55 219.89 20.15
  A 3.35 3.32 54.7 0 0 217.95 19.81
  Q 213.55 20.39 210.37 19.30
  Q 208.26 18.58 207.51 17.17
  Z
  M 220.4500 12.7983
  A 0.85 0.74 74.3 0 0 220.9324 11.7798
  A 0.85 0.74 74.3 0 0 219.9900 11.1617
  A 0.85 0.74 74.3 0 0 219.5076 12.1802
  A 0.85 0.74 74.3 0 0 220.4500 12.7983
  Z
  M 214.64 14.27
  Q 214.96 14.35 215.20 14.15
  A 0.60 0.49 49.9 0 0 215.19 13.36
  Q 214.26 12.29 214.19 13.55
  A 0.71 0.58 -82.7 0 0 214.64 14.27
  Z
  M 210.30 15.67
  Q 211.81 15.01 210.18 14.75
  A 0.89 0.77 20.3 0 0 209.35 15.06
  Q 208.99 15.56 209.55 15.74
  Q 209.89 15.84 210.30 15.67
  Z"
/>
<path fill="#191919" d="
  M 293.87 30.57
  Q 293.63 40.10 291.91 50.02
  A 0.57 0.57 -85.2 0 1 291.35 50.50
  L 259.10 50.34
  Q 256.86 50.33 256.78 48.04
  Q 256.11 29.22 256.24 11.15
  Q 256.25 11.09 256.18 9.86
  Q 256.04 7.25 258.72 7.23
  Q 259.66 7.22 259.79 7.22
  Q 275.18 6.28 290.51 8.00
  Q 292.42 8.22 292.69 10.12
  Q 294.14 20.27 293.87 30.57
  Z
  M 289.95 38.08
  Q 291.09 25.89 289.36 12.69
  A 1.34 1.34 0.6 0 0 288.23 11.54
  Q 283.03 10.74 278.00 10.73
  Q 269.75 10.71 260.51 10.75
  A 0.77 0.76 -0.7 0 0 259.75 11.52
  L 260.30 46.19
  A 0.53 0.53 90.0 0 0 260.82 46.71
  L 287.46 46.98
  A 1.28 1.25 -83.9 0 0 288.70 45.95
  Q 289.65 41.31 289.95 38.08
  Z"
/>
<path  d="
  M 289.95 38.08
  Q 289.65 41.31 288.70 45.95
  A 1.28 1.25 -83.9 0 1 287.46 46.98
  L 260.82 46.71
  A 0.53 0.53 89.2 0 1 260.30 46.19
  L 259.75 11.52
  A 0.77 0.76 -0.7 0 1 260.51 10.75
  Q 269.75 10.71 278.00 10.73
  Q 283.03 10.74 288.23 11.54
  A 1.34 1.34 0.6 0 1 289.36 12.69
  Q 291.09 25.89 289.95 38.08
  Z
  M 271.70 14.95
  Q 272.81 10.75 269.04 11.68
  A 0.90 0.82 -1.2 0 0 268.40 12.29
  L 265.58 23.75
  A 0.97 0.85 -63.9 0 0 265.82 24.64
  Q 266.92 25.63 269.51 24.22
  A 0.33 0.32 -35.9 0 1 269.90 24.28
  L 271.98 26.36
  A 0.73 0.72 49.7 0 1 271.89 27.47
  Q 269.76 28.97 267.54 30.45
  Q 267.48 30.49 266.80 30.86
  Q 265.44 31.61 266.32 33.19
  A 1.71 1.68 59.1 0 0 268.73 33.82
  L 274.94 29.76
  A 1.64 1.60 -44.7 0 1 276.72 29.75
  Q 278.93 31.19 281.68 32.33
  Q 283.64 33.14 284.14 31.36
  A 1.66 1.64 -68.3 0 0 283.33 29.45
  L 278.96 27.14
  A 1.09 1.08 31.0 0 1 278.56 25.57
  Q 280.93 22.07 281.69 19.19
  Q 282.34 16.72 279.98 16.42
  L 272.06 15.45
  A 0.42 0.40 10.5 0 1 271.70 14.95
  Z
  M 279.9698 37.7845
  A 1.60 1.60 0.0 0 0 279.5032 35.5704
  L 274.7282 32.4576
  A 1.60 1.60 0.0 0 0 272.5141 32.9242
  L 272.3502 33.1755
  A 1.60 1.60 0.0 0 0 272.8168 35.3896
  L 277.5918 38.5024
  A 1.60 1.60 0.0 0 0 279.8059 38.0358
  L 279.9698 37.7845
  Z
  M 279.5815 42.7498
  A 1.36 1.36 0.0 0 0 278.9617 40.9291
  L 273.2013 38.0946
  A 1.36 1.36 0.0 0 0 271.3805 38.7144
  L 271.0185 39.4502
  A 1.36 1.36 0.0 0 0 271.6383 41.2709
  L 277.3987 44.1054
  A 1.36 1.36 0.0 0 0 279.2195 43.4856
  L 279.5815 42.7498
  Z"
/>
<ellipse fill="#191919" cx="0.00" cy="0.00" transform="translate(220.22,11.98) rotate(74.3)" rx="0.85" ry="0.74"/>
<path fill="#191919" d="
  M 375.32 18.06
  L 376.18 25.44
  A 0.80 0.77 -18.4 0 1 375.78 26.21
  Q 374.73 26.80 373.88 26.09
  Q 373.37 25.66 373.11 24.61
  Q 370.81 15.33 371.00 13.50
  Q 371.39 9.66 374.26 12.64
  A 1.29 1.29 63.5 0 0 375.40 13.02
  Q 382.97 11.75 390.50 11.03
  Q 392.62 10.82 393.93 11.99
  Q 394.95 12.91 395.01 14.97
  Q 395.11 18.40 394.73 21.96
  A 1.70 1.69 9.4 0 1 392.67 23.43
  Q 391.09 23.07 391.28 20.98
  Q 391.55 18.03 391.47 15.89
  A 1.42 1.37 84.1 0 0 389.86 14.53
  L 375.98 17.00
  A 0.98 0.83 81.7 0 0 375.32 18.06
  Z"
/>
<path fill="#191919" d="
  M 272.06 15.45
  L 279.98 16.42
  Q 282.34 16.72 281.69 19.19
  Q 280.93 22.07 278.56 25.57
  A 1.09 1.08 31.0 0 0 278.96 27.14
  L 283.33 29.45
  A 1.66 1.64 -68.3 0 1 284.14 31.36
  Q 283.64 33.14 281.68 32.33
  Q 278.93 31.19 276.72 29.75
  A 1.64 1.60 -44.7 0 0 274.94 29.76
  L 268.73 33.82
  A 1.71 1.68 59.1 0 1 266.32 33.19
  Q 265.44 31.61 266.80 30.86
  Q 267.48 30.49 267.54 30.45
  Q 269.76 28.97 271.89 27.47
  A 0.73 0.72 49.7 0 0 271.98 26.36
  L 269.90 24.28
  A 0.33 0.32 -35.9 0 0 269.51 24.22
  Q 266.92 25.63 265.82 24.64
  A 0.97 0.85 -63.9 0 1 265.58 23.75
  L 268.40 12.29
  A 0.90 0.82 -1.2 0 1 269.04 11.68
  Q 272.81 10.75 271.70 14.95
  A 0.42 0.40 10.5 0 0 272.06 15.45
  Z
  M 274.50 23.59
  A 0.89 0.86 -55.0 0 0 275.88 23.32
  L 277.30 20.48
  A 0.71 0.64 -73.2 0 0 276.82 19.47
  L 271.49 19.00
  Q 269.54 18.83 270.99 20.22
  L 274.50 23.59
  Z"
/>
<path fill="#191919" d="
  M 329.25 12.36
  Q 330.77 12.97 329.49 14.14
  A 0.72 0.71 61.9 0 1 328.32 13.78
  Q 327.82 11.78 329.25 12.36
  Z"
/>
<rect fill="#191919" x="-1.59" y="-19.61" transform="translate(241.42,31.90) rotate(-0.1)" width="3.18" height="39.22" rx="0.32"/>
<path fill="#191919" d="
  M 214.19 13.55
  Q 214.26 12.29 215.19 13.36
  A 0.60 0.49 49.9 0 1 215.20 14.15
  Q 214.96 14.35 214.64 14.27
  A 0.71 0.58 -82.7 0 1 214.19 13.55
  Z"
/>
<path fill="#191919" d="
  M 189.33 15.10
  Q 191.08 15.31 191.22 17.07
  Q 192.33 30.56 188.11 42.22
  A 0.73 0.72 9.3 0 1 187.44 42.69
  L 160.64 42.93
  A 1.76 1.75 -5.7 0 1 158.90 41.52
  Q 156.34 28.38 158.35 16.86
  Q 158.72 14.75 160.85 14.60
  Q 176.20 13.50 189.33 15.10
  Z
  M 181.58 36.94
  Q 179.57 36.48 178.19 35.19
  Q 177.01 34.09 176.74 31.91
  Q 175.94 25.73 176.31 18.63
  A 0.78 0.75 -88.2 0 0 175.57 17.81
  L 173.32 17.77
  A 0.53 0.48 89.4 0 0 172.83 18.32
  Q 173.11 24.53 173.02 30.75
  Q 172.96 35.18 168.97 36.37
  A 1.08 1.07 -37.1 0 1 168.07 36.25
  Q 165.61 34.69 168.53 32.46
  A 1.89 1.67 -21.6 0 0 169.26 31.02
  L 168.94 18.59
  A 0.63 0.61 -0.9 0 0 168.31 18.00
  L 162.94 18.00
  A 1.22 1.21 -86.2 0 0 161.74 19.06
  Q 160.61 28.01 162.23 38.50
  A 0.95 0.92 -4.5 0 0 163.18 39.28
  L 184.51 38.99
  A 0.94 0.84 14.3 0 0 185.28 38.59
  Q 186.66 36.40 183.61 36.98
  Q 182.59 37.17 181.58 36.94
  Z
  M 181.29 32.91
  L 184.70 33.70
  A 1.52 1.23 72.2 0 1 185.48 34.21
  Q 186.56 35.49 186.92 33.58
  Q 188.31 26.35 187.75 19.06
  A 0.78 0.72 89.4 0 0 187.07 18.34
  L 181.04 17.98
  A 0.99 0.97 -89.5 0 0 180.02 19.01
  L 180.47 31.98
  A 1.06 0.98 5.9 0 0 181.29 32.91
  Z"
/>
<path fill="#191919" d="
  M 209.55 15.74
  Q 208.99 15.56 209.35 15.06
  A 0.89 0.77 20.3 0 1 210.18 14.75
  Q 211.81 15.01 210.30 15.67
  Q 209.89 15.84 209.55 15.74
  Z"
/>
<circle fill="#191919" cx="338.00" cy="16.00" r="0.97"/>
<path fill="#191919" d="
  M 11.95 26.90
  L 9.57 26.99
  A 0.88 0.70 -9.2 0 1 8.76 26.54
  Q 8.47 25.79 11.44 26.14
  A 1.10 1.02 -86.3 0 0 12.57 25.07
  L 12.83 16.94
  Q 12.88 15.25 14.86 15.25
  Q 23.44 15.25 31.01 15.25
  Q 31.08 15.25 32.98 15.14
  Q 37.06 14.89 36.75 19.25
  Q 36.51 22.64 38.87 21.54
  Q 39.39 21.31 39.81 21.34
  Q 41.71 21.47 39.58 22.29
  Q 39.43 22.35 38.78 22.52
  Q 36.37 23.17 37.09 26.40
  A 1.02 1.02 -4.9 0 0 38.03 27.19
  Q 39.76 27.26 41.26 28.05
  Q 41.67 28.26 41.38 28.44
  Q 41.27 28.50 41.10 28.48
  Q 39.42 28.29 37.73 28.00
  A 1.05 1.04 -88.8 0 0 36.52 29.17
  Q 36.74 30.73 35.75 31.63
  Q 35.09 32.23 33.58 32.33
  Q 23.81 32.95 14.23 32.51
  A 1.41 1.28 87.5 0 1 13.00 31.27
  L 12.54 27.29
  A 0.59 0.45 -3.9 0 0 11.95 26.90
  Z
  M 33.2523 19.5749
  A 0.59 0.59 0.0 0 0 32.6613 18.9860
  L 16.5813 19.0140
  A 0.59 0.59 0.0 0 0 15.9923 19.6051
  L 16.0077 28.4251
  A 0.59 0.59 0.0 0 0 16.5987 29.0140
  L 32.6787 28.9860
  A 0.59 0.59 0.0 0 0 33.2677 28.3949
  L 33.2523 19.5749
  Z"
/>
<path fill="#191919" d="
  M 332.27 15.49
  Q 332.51 14.96 332.74 15.51
  Q 332.82 15.67 332.80 15.88
  Q 332.56 19.21 332.21 15.88
  Q 332.19 15.66 332.27 15.49
  Z"
/>
<path fill="#191919" d="
  M 72.48 21.21
  Q 70.47 21.36 70.33 23.44
  L 68.74 47.44
  A 1.34 1.28 -21.3 0 1 68.34 48.30
  Q 66.41 50.19 65.89 47.96
  Q 65.74 47.29 65.79 46.03
  Q 66.40 31.98 68.00 17.99
  A 1.02 1.01 -75.1 0 1 69.40 17.17
  Q 71.37 18.02 74.01 17.83
  Q 77.01 17.60 79.99 17.94
  A 1.08 0.88 -8.2 0 1 80.77 18.41
  Q 81.47 19.64 80.50 20.36
  Q 79.99 20.74 78.90 20.80
  Q 75.11 21.02 72.48 21.21
  Z"
/>
<rect fill="#191919" x="-1.64" y="-3.37" transform="translate(89.27,20.39) rotate(-4.6)" width="3.28" height="6.74" rx="1.32"/>
<ellipse fill="#191919" cx="0.00" cy="0.00" transform="translate(95.74,21.69) rotate(109.2)" rx="4.55" ry="1.72"/>
<path  d="
  M 181.58 36.94
  Q 182.59 37.17 183.61 36.98
  Q 186.66 36.40 185.28 38.59
  A 0.94 0.84 14.3 0 1 184.51 38.99
  L 163.18 39.28
  A 0.95 0.92 -4.5 0 1 162.23 38.50
  Q 160.61 28.01 161.74 19.06
  A 1.22 1.21 -86.2 0 1 162.94 18.00
  L 168.31 18.00
  A 0.63 0.61 -0.9 0 1 168.94 18.59
  L 169.26 31.02
  A 1.89 1.67 -21.6 0 1 168.53 32.46
  Q 165.61 34.69 168.07 36.25
  A 1.08 1.07 -37.1 0 0 168.97 36.37
  Q 172.96 35.18 173.02 30.75
  Q 173.11 24.53 172.83 18.32
  A 0.53 0.48 89.4 0 1 173.32 17.77
  L 175.57 17.81
  A 0.78 0.75 -88.2 0 1 176.31 18.63
  Q 175.94 25.73 176.74 31.91
  Q 177.01 34.09 178.19 35.19
  Q 179.57 36.48 181.58 36.94
  Z"
/>
<rect fill="#191919" x="-1.61" y="-3.58" transform="translate(56.38,21.64) rotate(-0.7)" width="3.22" height="7.16" rx="1.52"/>
<rect fill="#191919" x="-1.65" y="-4.47" transform="translate(61.28,22.39) rotate(18.3)" width="3.30" height="8.94" rx="1.58"/>
<path  d="
  M 181.29 32.91
  A 1.06 0.98 5.9 0 1 180.47 31.98
  L 180.02 19.01
  A 0.99 0.97 -89.5 0 1 181.04 17.98
  L 187.07 18.34
  A 0.78 0.72 89.4 0 1 187.75 19.06
  Q 188.31 26.35 186.92 33.58
  Q 186.56 35.49 185.48 34.21
  A 1.52 1.23 72.2 0 0 184.70 33.70
  L 181.29 32.91
  Z"
/>
<path fill="#191919" d="
  M 358.82 20.20
  L 368.84 20.24
  A 1.99 1.95 -2.9 0 1 370.80 21.98
  Q 371.34 26.71 369.92 31.66
  Q 369.65 32.62 369.04 32.91
  Q 368.33 33.24 367.64 32.80
  A 1.02 0.85 -77.4 0 1 367.23 32.00
  L 367.18 24.81
  A 0.58 0.50 89.9 0 0 366.69 24.24
  L 358.68 24.13
  A 0.58 0.52 -88.4 0 0 358.15 24.69
  L 357.94 30.69
  A 1.26 0.89 77.4 0 1 357.59 31.53
  Q 356.58 32.39 355.60 31.63
  Q 355.02 31.17 354.86 30.13
  Q 354.00 24.54 354.86 18.93
  A 0.90 0.82 85.5 0 1 355.39 18.24
  Q 357.72 17.31 358.23 19.69
  A 0.65 0.59 83.4 0 0 358.82 20.20
  Z"
/>
<path  d="
  M 33.2677 28.3949
  A 0.59 0.59 0.0 0 1 32.6787 28.9860
  L 16.5987 29.0140
  A 0.59 0.59 0.0 0 1 16.0077 28.4251
  L 15.9923 19.6051
  A 0.59 0.59 0.0 0 1 16.5813 19.0140
  L 32.6613 18.9860
  A 0.59 0.59 0.0 0 1 33.2523 19.5749
  L 33.2677 28.3949
  Z
  M 31.18 20.84
  Q 30.74 19.47 30.16 21.03
  A 0.97 0.81 -56.6 0 0 30.26 21.92
  Q 30.73 22.48 31.11 21.78
  A 1.23 1.09 52.6 0 0 31.18 20.84
  Z
  M 18.65 22.59
  Q 18.10 21.15 17.62 22.77
  A 0.92 0.75 -63.3 0 0 17.81 23.64
  Q 18.24 24.05 18.59 23.51
  A 1.10 0.91 54.2 0 0 18.65 22.59
  Z
  M 23.33 26.79
  Q 26.95 29.63 28.44 25.90
  Q 28.75 25.12 28.10 25.65
  Q 25.69 27.61 23.75 25.96
  Q 23.75 24.48 23.63 23.01
  Q 23.50 21.44 23.33 23.01
  Q 23.13 24.96 22.44 26.79
  A 0.61 0.40 -71.3 0 0 22.64 27.55
  Q 23.02 27.63 23.33 26.79
  Z"
/>
<path fill="#191919" d="
  M 126.38 32.70
  Q 123.76 36.05 121.37 39.56
  Q 119.94 41.66 117.80 40.43
  A 1.49 1.48 -56.3 0 1 117.37 38.24
  L 123.79 29.84
  A 0.86 0.86 43.5 0 0 123.76 28.76
  Q 121.45 26.10 119.32 23.31
  Q 119.26 23.24 118.51 22.36
  Q 116.62 20.12 119.52 19.14
  A 0.83 0.77 -29.6 0 1 120.37 19.34
  L 126.23 25.71
  A 0.45 0.44 -45.4 0 0 126.89 25.70
  L 132.60 19.53
  A 1.51 1.36 41.7 0 1 134.59 19.52
  Q 136.67 21.29 134.56 22.56
  Q 132.18 24.00 129.26 28.82
  A 0.71 0.70 41.7 0 0 129.31 29.63
  L 136.27 38.78
  A 1.19 1.00 36.0 0 1 136.49 39.67
  Q 136.14 41.28 134.56 41.24
  A 1.17 1.11 70.5 0 1 133.73 40.82
  L 126.99 32.71
  A 0.40 0.38 44.3 0 0 126.38 32.70
  Z"
/>
<path  d="
  M 274.50 23.59
  L 270.99 20.22
  Q 269.54 18.83 271.49 19.00
  L 276.82 19.47
  A 0.71 0.64 -73.2 0 1 277.30 20.48
  L 275.88 23.32
  A 0.89 0.86 -55.0 0 1 274.50 23.59
  Z"
/>
<path fill="#191919" d="
  M 31.11 21.78
  Q 30.73 22.48 30.26 21.92
  A 0.97 0.81 -56.6 0 1 30.16 21.03
  Q 30.74 19.47 31.18 20.84
  A 1.23 1.09 52.6 0 1 31.11 21.78
  Z"
/>
<path  d="
  M 320.43 21.32
  Q 324.48 20.43 328.52 21.38
  A 0.60 0.55 10.1 0 1 328.99 21.99
  L 328.04 30.44
  A 0.60 0.60 3.2 0 1 327.44 30.97
  L 320.43 30.86
  A 0.55 0.51 -89.5 0 1 319.93 30.31
  L 319.94 21.93
  A 0.63 0.62 -6.4 0 1 320.43 21.32
  Z"
/>
<path fill="#191919" d="
  M 18.59 23.51
  Q 18.24 24.05 17.81 23.64
  A 0.92 0.75 -63.3 0 1 17.62 22.77
  Q 18.10 21.15 18.65 22.59
  A 1.10 0.91 54.2 0 1 18.59 23.51
  Z"
/>
<path fill="#191919" d="
  M 23.75 25.96
  L 23.33 26.79
  Q 23.02 27.63 22.64 27.55
  A 0.61 0.40 -71.3 0 1 22.44 26.79
  Q 23.13 24.96 23.33 23.01
  Q 23.50 21.44 23.63 23.01
  Q 23.75 24.48 23.75 25.96
  Z"
/>
<path fill="#191919" d="
  M 72.40 48.35
  A 1.52 1.32 84.9 0 1 71.00 47.01
  Q 70.67 44.25 70.78 41.49
  Q 70.90 38.42 70.97 35.99
  Q 71.12 30.03 73.25 24.41
  A 1.01 0.89 -84.2 0 1 73.91 23.80
  Q 76.31 23.24 75.80 25.76
  Q 73.97 34.82 74.17 44.06
  Q 74.19 44.65 74.46 44.99
  Q 75.00 45.65 75.49 44.84
  Q 75.68 44.52 75.70 43.99
  Q 75.75 42.74 75.99 41.52
  Q 76.21 40.48 76.82 40.11
  Q 77.54 39.69 78.35 40.20
  A 1.19 0.77 -84.9 0 1 78.77 41.00
  L 79.65 47.76
  A 1.89 0.89 70.2 0 1 79.56 48.71
  Q 78.28 51.64 76.88 48.52
  A 0.74 0.63 -12.1 0 0 76.19 48.15
  L 72.40 48.35
  Z"
/>
<path fill="#191919" d="
  M 390.47 32.31
  Q 390.08 34.24 388.28 34.34
  L 383.82 34.57
  A 0.82 0.64 6.3 0 0 383.11 35.01
  Q 382.74 36.00 383.11 36.98
  A 0.76 0.68 -8.6 0 0 383.81 37.44
  Q 388.44 37.42 393.06 37.69
  Q 396.40 37.88 395.93 41.03
  Q 395.15 46.30 394.00 51.52
  Q 393.53 53.63 391.37 53.69
  Q 387.35 53.80 383.25 53.79
  Q 380.09 53.78 379.56 51.40
  Q 379.50 51.14 379.50 47.59
  Q 379.50 36.62 379.50 25.10
  A 0.88 0.81 89.7 0 1 380.30 24.22
  L 389.59 24.04
  A 1.11 1.03 82.7 0 1 390.62 24.90
  Q 391.31 28.02 390.47 32.31
  Z
  M 387.4200 27.9061
  A 0.47 0.47 0.0 0 0 386.9387 27.4477
  L 383.4397 27.5333
  A 0.47 0.47 0.0 0 0 382.9813 28.0146
  L 383.0400 30.4139
  A 0.47 0.47 0.0 0 0 383.5213 30.8723
  L 387.0203 30.7867
  A 0.47 0.47 0.0 0 0 387.4787 30.3054
  L 387.4200 27.9061
  Z
  M 390.79 48.95
  L 391.89 42.09
  A 0.99 0.92 3.0 0 0 390.86 41.03
  L 384.08 41.31
  A 1.13 1.12 -1.3 0 0 383.00 42.43
  L 383.00 49.34
  A 0.66 0.66 -0.1 0 0 383.66 50.00
  L 389.47 50.00
  A 1.35 1.23 3.9 0 0 390.79 48.95
  Z"
/>
<path fill="#191919" d="
  M 23.33 26.79
  L 23.75 25.96
  Q 25.69 27.61 28.10 25.65
  Q 28.75 25.12 28.44 25.90
  Q 26.95 29.63 23.33 26.79
  Z"
/>
<rect fill="#191919" x="-1.64" y="-9.40" transform="translate(80.86,34.60) rotate(-7.9)" width="3.28" height="18.80" rx="1.05"/>
<rect fill="#191919" x="-1.72" y="-7.73" transform="translate(227.79,33.02) rotate(-0.6)" width="3.44" height="15.46" rx="1.61"/>
<rect fill="#191919" x="-1.72" y="-7.74" transform="translate(215.58,33.54) rotate(-6.0)" width="3.44" height="15.48" rx="1.59"/>
<path fill="#191919" d="
  M 364.07 42.65
  L 366.63 41.82
  Q 367.41 41.57 367.56 41.59
  Q 368.72 41.75 368.68 42.84
  Q 368.66 43.50 368.11 44.14
  Q 366.11 46.46 362.17 46.92
  A 1.53 1.53 -6.1 0 1 360.48 45.57
  Q 359.50 36.89 360.21 28.00
  A 0.85 0.71 84.2 0 1 360.69 27.29
  Q 361.58 26.97 362.36 27.45
  A 1.08 0.88 -79.0 0 1 362.79 28.26
  L 363.55 42.19
  A 0.48 0.40 80.8 0 0 364.07 42.65
  Z"
/>
<rect  x="-2.22" y="-1.67" transform="translate(385.23,29.16) rotate(-1.4)" width="4.44" height="3.34" rx="0.47"/>
<rect fill="#191919" x="-6.81" y="-1.66" transform="translate(93.10,29.70) rotate(0.9)" width="13.62" height="3.32" rx="1.35"/>
<path fill="#191919" d="
  M 59.55 32.74
  Q 60.13 33.94 59.97 35.50
  A 1.21 1.20 88.2 0 0 61.36 36.81
  Q 65.10 36.21 64.56 38.95
  A 1.01 0.97 -6.7 0 1 63.98 39.66
  Q 62.56 40.25 60.81 39.97
  A 0.75 0.74 -86.9 0 0 59.95 40.75
  L 60.42 49.44
  A 0.94 0.84 73.3 0 1 60.04 50.25
  Q 58.98 50.94 57.90 50.29
  A 1.01 1.00 13.7 0 1 57.42 49.51
  L 56.75 41.22
  A 1.37 1.28 83.0 0 0 55.25 39.96
  Q 51.65 40.57 52.63 37.78
  A 0.86 0.82 -83.9 0 1 53.30 37.21
  L 56.06 36.85
  A 0.65 0.61 -0.9 0 0 56.61 36.32
  L 57.05 32.94
  A 0.61 0.61 -87.2 0 0 56.43 32.25
  L 52.07 32.42
  A 0.86 0.81 -14.6 0 1 51.30 32.00
  Q 50.09 29.77 52.81 29.31
  Q 57.69 28.49 63.94 29.25
  A 0.89 0.80 -6.2 0 1 64.65 29.76
  Q 65.18 31.06 64.29 31.80
  Q 63.76 32.24 62.59 32.24
  Q 61.20 32.23 59.80 32.29
  A 0.31 0.30 75.3 0 0 59.55 32.74
  Z"
/>
<path fill="#191919" d="
  M 90.19 40.32
  L 86.69 40.12
  A 0.82 0.82 -9.8 0 1 85.98 39.62
  Q 84.74 36.60 89.01 37.05
  Q 91.37 37.30 91.19 34.94
  Q 90.87 30.79 94.00 32.33
  A 0.88 0.69 17.5 0 1 94.50 33.06
  L 94.27 36.16
  A 0.78 0.76 -86.4 0 0 94.99 37.00
  L 98.70 37.20
  A 0.79 0.66 83.3 0 1 99.33 37.79
  Q 100.01 40.67 95.76 40.16
  A 1.53 1.53 3.7 0 0 94.05 41.66
  L 93.94 51.69
  A 0.78 0.69 80.9 0 1 93.49 52.40
  Q 92.42 52.82 91.41 52.27
  A 0.93 0.85 -77.2 0 1 90.97 51.50
  L 90.68 40.81
  A 0.51 0.50 0.6 0 0 90.19 40.32
  Z"
/>
<rect fill="#191919" x="-4.45" y="-1.75" transform="translate(276.16,35.48) rotate(33.1)" width="8.90" height="3.50" rx="1.60"/>
<path fill="#191919" d="
  M 31.78 40.86
  Q 31.89 43.76 29.74 44.00
  A 0.79 0.78 82.3 0 1 28.88 43.34
  Q 28.25 39.26 28.84 35.94
  A 0.87 0.82 86.9 0 1 29.41 35.27
  Q 31.83 34.52 31.77 36.69
  Q 31.71 38.77 31.78 40.86
  Z"
/>
<path fill="#191919" d="
  M 20.32 46.95
  Q 19.50 43.63 18.96 40.26
  Q 18.65 38.28 19.93 37.54
  Q 21.89 36.39 22.10 38.52
  L 22.94 46.84
  A 0.53 0.47 84.7 0 0 23.45 47.32
  L 37.86 46.30
  A 1.41 1.39 73.0 0 1 39.19 47.02
  Q 40.57 49.47 37.95 49.54
  Q 36.10 49.59 36.05 49.59
  Q 26.80 50.48 17.52 51.02
  Q 17.42 51.03 16.12 51.28
  Q 14.43 51.60 14.51 49.21
  A 0.71 0.65 85.4 0 1 15.02 48.55
  L 19.94 47.50
  A 0.48 0.45 -12.6 0 0 20.32 46.95
  Z"
/>
<rect fill="#191919" x="-4.57" y="-1.77" transform="translate(275.30,41.10) rotate(26.2)" width="9.14" height="3.54" rx="1.36"/>
<path  d="
  M 390.79 48.95
  A 1.35 1.23 3.9 0 1 389.47 50.00
  L 383.66 50.00
  A 0.66 0.66 0.2 0 1 383.00 49.34
  L 383.00 42.43
  A 1.13 1.12 -1.3 0 1 384.08 41.31
  L 390.86 41.03
  A 0.99 0.92 3.0 0 1 391.89 42.09
  L 390.79 48.95
  Z"
/>
<path fill="#191919" d="
  M 340.37 41.65
  Q 340.74 41.22 341.06 41.78
  Q 341.19 42.02 341.18 42.36
  Q 341.06 46.51 338.46 49.70
  Q 337.50 50.87 337.30 49.75
  A 1.36 0.96 -39.4 0 1 337.55 48.84
  Q 339.64 45.88 340.15 42.27
  Q 340.20 41.86 340.37 41.65
  Z"
/>
<path fill="#191919" d="
  M 345.19 45.67
  Q 345.69 44.47 345.77 45.77
  Q 345.96 49.10 343.28 51.38
  Q 343.04 51.59 342.78 51.64
  Q 342.03 51.78 342.61 50.82
  Q 344.10 48.35 345.19 45.67
  Z"
/>
</svg>

  </g>

  <path
    fill="#d6645d"
    d="
  M 336.50 109.46
  Q 315.46 119.11 297.93 134.20
  Q 291.29 139.92 284.53 145.94
  C 283.83 146.57 282.89 146.85 281.96 146.71
  Q 255.12 142.58 228.96 146.60
  C 228.01 146.75 227.04 146.43 226.36 145.74
  Q 203.62 122.84 176.25 109.96
  Q 176.67 107.52 178.99 107.09
  Q 180.40 106.82 180.50 106.80
  Q 258.47 85.69 336.21 107.68
  C 336.57 107.78 336.83 108.01 336.89 108.27
  Q 337.02 108.86 336.50 109.46
  Z"
  />
  <path
    fill="#040404"
    d="
  M 176.25 109.96
  Q 203.62 122.84 226.36 145.74
  C 227.04 146.43 228.01 146.75 228.96 146.60
  Q 255.12 142.58 281.96 146.71
  C 282.89 146.85 283.83 146.57 284.53 145.94
  Q 291.29 139.92 297.93 134.20
  Q 315.46 119.11 336.50 109.46
  Q 350.98 104.39 355.96 118.25
  Q 369.30 155.33 377.06 196.94
  Q 377.52 199.40 379.46 201.30
  Q 381.93 203.73 381.97 203.78
  Q 412.44 239.58 412.32 287.20
  Q 412.31 287.68 412.69 287.36
  Q 417.42 283.22 422.75 281.50
  Q 442.98 274.96 458.44 289.31
  Q 465.19 295.59 467.06 304.21
  Q 468.92 312.80 465.56 320.51
  Q 462.08 328.45 453.76 334.09
  Q 452.33 335.06 450.79 334.19
  L 444.75 330.79
  L 439.79 328.75
  L 432.75 326.79
  Q 417.38 324.20 405.70 334.20
  Q 404.35 335.35 403.06 336.57
  Q 402.52 337.07 403.06 336.96
  Q 403.18 336.94 403.28 336.85
  Q 415.11 325.38 431.75 327.04
  L 439.25 329.04
  L 444.25 331.04
  Q 458.35 337.99 462.21 353.25
  Q 462.10 353.98 462.50 354.54
  Q 464.08 371.60 451.53 381.78
  Q 449.65 383.31 447.65 384.27
  Q 445.24 385.43 443.25 385.75
  Q 433.63 387.31 418.74 388.09
  Q 396.73 389.25 374.74 390.62
  Q 367.82 391.05 354.78 392.04
  Q 315.57 395.04 276.25 396.03
  Q 266.18 396.28 256.24 396.23
  Q 212.01 395.97 176.75 393.00
  Q 140.55 389.95 104.25 388.72
  Q 91.85 388.30 75.44 386.81
  Q 70.63 386.38 66.36 385.05
  Q 61.88 383.67 58.45 380.59
  Q 46.87 370.19 49.29 353.25
  Q 51.62 342.39 60.00 335.21
  Q 62.28 334.43 64.94 332.69
  Q 68.46 330.38 73.25 328.46
  Q 81.50 325.88 87.75 326.75
  Q 101.75 328.70 111.49 340.60
  Q 111.57 340.70 111.67 340.73
  Q 111.82 340.77 111.91 340.72
  C 112.00 340.65 111.98 340.47 111.85 340.31
  Q 103.42 329.80 91.00 326.75
  Q 82.18 324.58 73.00 328.21
  Q 68.54 329.59 64.25 332.50
  Q 62.43 333.73 59.75 334.79
  Q 47.46 330.00 45.31 317.19
  Q 42.71 301.68 53.60 290.10
  Q 62.78 280.35 76.26 279.61
  Q 89.15 278.91 98.44 286.98
  Q 99.24 287.68 99.25 286.61
  Q 99.40 245.55 122.09 212.09
  Q 127.00 204.85 133.48 198.65
  C 133.87 198.28 134.14 197.80 134.24 197.27
  Q 136.53 186.03 138.68 176.09
  Q 145.28 145.48 157.71 116.75
  Q 160.01 112.60 160.56 111.81
  Q 163.91 107.05 170.50 108.00
  Q 172.50 108.29 176.25 109.96
  Z
  M 347.2098 257.8292
  C 346.44 243.99 334.27 233.42 320.0394 234.2191
  C 305.81 235.01 294.90 246.88 295.6702 260.7108
  C 296.44 274.55 308.61 285.12 322.8406 284.3209
  C 337.07 283.53 347.98 271.66 347.2098 257.8292
  Z
  M 216.1692 262.1959
  C 217.71 248.49 207.47 236.08 193.3145 234.4957
  C 179.15 232.91 166.43 242.73 164.8908 256.4441
  C 163.35 270.15 173.59 282.56 187.7455 284.1443
  C 201.91 285.73 214.63 275.91 216.1692 262.1959
  Z
  M 250.01 284.77
  Q 251.22 285.28 252.52 285.34
  Q 254.08 285.40 255.48 285.52
  Q 257.85 285.74 259.82 284.39
  Q 260.95 283.61 261.44 283.49
  Q 263.31 283.01 262.81 285.46
  Q 262.22 288.41 258.86 289.36
  C 257.97 289.61 257.36 290.36 257.36 291.18
  L 257.36 295.32
  C 257.36 295.59 257.62 295.82 257.94 295.84
  Q 263.05 296.13 267.98 294.68
  Q 272.57 293.34 274.06 290.06
  Q 275.34 287.24 273.47 285.28
  Q 272.37 284.13 269.67 283.39
  Q 257.86 280.16 245.85 282.39
  Q 242.36 283.04 240.45 284.40
  Q 236.68 287.08 239.01 290.79
  Q 240.74 293.53 244.47 294.99
  Q 249.73 297.04 255.57 295.91
  C 255.86 295.86 256.06 295.61 256.07 295.31
  Q 256.10 294.15 256.15 293.01
  Q 256.27 289.99 253.46 289.15
  Q 250.22 288.17 249.64 285.06
  Q 249.54 284.57 250.01 284.77
  Z
  M 235.19 317.81
  Q 240.98 322.18 247.16 318.64
  Q 253.16 315.20 254.74 308.68
  Q 255.42 305.92 255.47 305.47
  Q 255.81 302.72 252.55 302.79
  C 252.28 302.80 252.05 303.02 252.03 303.32
  Q 251.64 308.22 249.94 311.19
  Q 247.56 315.33 242.78 315.88
  Q 239.92 316.21 238.04 315.03
  Q 235.78 313.60 235.32 310.49
  Q 234.80 306.99 232.32 308.87
  C 232.07 309.06 231.90 309.35 231.85 309.68
  Q 231.03 314.67 235.19 317.81
  Z
  M 266.00 318.90
  Q 272.09 322.02 278.37 317.10
  Q 281.65 314.54 281.19 311.06
  Q 280.83 308.37 278.23 309.09
  C 277.94 309.17 277.73 309.42 277.68 309.74
  Q 276.78 315.12 272.36 315.79
  Q 268.67 316.36 265.82 313.79
  Q 262.58 310.86 261.66 305.09
  C 261.54 304.32 261.02 303.67 260.29 303.39
  Q 256.65 301.98 257.68 306.97
  Q 258.47 310.82 260.57 313.94
  Q 262.81 317.26 266.00 318.90
  Z"
  />
  <path
    fill="#d7645c"
    d="
  M 157.71 116.75
  Q 145.28 145.48 138.68 176.09
  Q 136.53 186.03 134.24 197.27
  C 134.14 197.80 133.87 198.28 133.48 198.65
  Q 127.00 204.85 122.09 212.09
  Q 99.40 245.55 99.25 286.61
  Q 99.24 287.68 98.44 286.98
  Q 89.15 278.91 76.26 279.61
  Q 62.78 280.35 53.60 290.10
  Q 42.71 301.68 45.31 317.19
  Q 47.46 330.00 59.75 334.79
  L 60.00 335.21
  Q 51.62 342.39 49.29 353.25
  Q 47.81 353.03 47.96 351.50
  Q 45.77 342.76 44.18 333.89
  Q 41.28 317.67 41.06 316.17
  Q 39.66 307.00 39.77 297.72
  Q 39.86 290.75 40.88 279.29
  Q 46.78 213.57 91.01 164.02
  Q 103.42 150.12 118.38 139.22
  Q 125.58 133.97 134.59 128.30
  Q 142.87 123.08 151.58 118.60
  Q 154.47 117.12 157.71 116.75
  Z"
  />
  <path
    fill="#d6645d"
    d="
  M 462.21 353.25
  Q 458.35 337.99 444.25 331.04
  Q 444.66 331.06 444.75 330.79
  L 450.79 334.19
  Q 452.33 335.06 453.76 334.09
  Q 462.08 328.45 465.56 320.51
  Q 468.92 312.80 467.06 304.21
  Q 465.19 295.59 458.44 289.31
  Q 442.98 274.96 422.75 281.50
  Q 417.42 283.22 412.69 287.36
  Q 412.31 287.68 412.32 287.20
  Q 412.44 239.58 381.97 203.78
  Q 381.93 203.73 379.46 201.30
  Q 377.52 199.40 377.06 196.94
  Q 369.30 155.33 355.96 118.25
  Q 356.56 117.35 358.00 118.00
  Q 384.55 130.00 405.42 148.68
  Q 412.41 154.94 419.69 162.69
  Q 446.11 190.79 459.94 225.31
  Q 474.85 262.55 472.47 302.75
  Q 471.07 326.20 463.81 350.31
  Q 463.21 352.31 462.21 353.25
  Z"
  />
  <ellipse
    fill="#ffffff"
    cx="0.00"
    cy="0.00"
    transform="translate(321.44,259.27) rotate(-3.2)"
    rx="25.81"
    ry="25.09"
  />
  <ellipse
    fill="#ffffff"
    cx="0.00"
    cy="0.00"
    transform="translate(190.53,259.32) rotate(6.4)"
    rx="25.80"
    ry="24.98"
  />
  <path
    fill="#fafafa"
    d="
  M 249.64 285.06
  Q 250.22 288.17 253.46 289.15
  Q 256.27 289.99 256.15 293.01
  Q 256.10 294.15 256.07 295.31
  C 256.06 295.61 255.86 295.86 255.57 295.91
  Q 249.73 297.04 244.47 294.99
  Q 240.74 293.53 239.01 290.79
  Q 236.68 287.08 240.45 284.40
  Q 242.36 283.04 245.85 282.39
  Q 257.86 280.16 269.67 283.39
  Q 272.37 284.13 273.47 285.28
  Q 275.34 287.24 274.06 290.06
  Q 272.57 293.34 267.98 294.68
  Q 263.05 296.13 257.94 295.84
  C 257.62 295.82 257.36 295.59 257.36 295.32
  L 257.36 291.18
  C 257.36 290.36 257.97 289.61 258.86 289.36
  Q 262.22 288.41 262.81 285.46
  Q 263.31 283.01 261.44 283.49
  Q 260.95 283.61 259.82 284.39
  Q 257.85 285.74 255.48 285.52
  Q 254.08 285.40 252.52 285.34
  Q 251.22 285.28 250.01 284.77
  Q 249.54 284.57 249.64 285.06
  Z"
  />


  
  <svg
    version="1.1"
    id="_1"
    xmlns="http://www.w3.org/2000/svg"
    xmlns:xlink="http://www.w3.org/1999/xlink"
    x="240px"
    y="120px"
    viewBox="0 0 140 100"
    style="enable-background:new 0 0 140 100;"
    xml:space="preserve"
    width="40"
  >
    <style type="text/css">
      .st0 {
        fill: none;
        stroke: #E40914;
        stroke-width: 1.3483;
        stroke-miterlimit: 10;
      }

      .st1 {
        fill: #E40914;
      }
    </style>
    <path
      class="st0"
      d="M28.42,74.44"
    />
    <g>
      <path
        class="st1"
        d="M33.84,30.13c-0.28,0.14-0.43,0.18-0.52,0.16c-0.08-0.03-0.13-0.09-0.19-0.13l-0.38-0.28
		c-0.25-0.18-0.52-0.35-0.78-0.53c-0.53-0.33-1.06-0.65-1.61-0.94c-1.09-0.57-2.24-1-3.35-1.28c-2.26-0.59-4.35-0.29-5.74,0.53
		c-0.7,0.45-1.32,0.97-1.91,1.6c-0.29,0.34-0.58,0.67-0.86,1.04c-0.27,0.42-0.57,0.74-0.82,1.19c-1.07,1.68-2.11,3.62-3.02,5.75
		c-1.84,4.21-3.04,9.06-4.02,13.85l-0.33,1.78l-0.17,0.89l-0.08,0.45c-0.01,0.05-0.04,0.21-0.03,0.16c0.01-0.06-0.01,0.07-0.01,0.12
		c-0.12,1.12-0.19,2.34-0.23,3.52c-0.08,2.38,0.01,4.75,0.26,7.02c0.24,2.26,0.72,4.44,1.48,6.16c0.17,0.46,0.4,0.8,0.6,1.19
		c0.1,0.19,0.23,0.31,0.34,0.48c0.11,0.16,0.21,0.33,0.34,0.43c0.12,0.12,0.23,0.24,0.34,0.37c0.13,0.08,0.24,0.17,0.36,0.26
		c0.1,0.12,0.24,0.17,0.36,0.22c0.13,0.05,0.23,0.16,0.37,0.19c0.29,0.05,0.53,0.22,0.9,0.21c0.17,0.01,0.33,0.06,0.51,0.07
		c0.2-0.02,0.4-0.03,0.59-0.03c0.38,0.03,0.84-0.1,1.29-0.17c0.44-0.04,0.93-0.24,1.41-0.37c1.93-0.65,4-1.62,5.99-2.89
		c1.01-0.58,2-1.28,2.98-1.97c1-0.66,1.95-1.45,2.93-2.19c1.05-0.77,1.74-1.45,2.59-2.2l2.81-2.74c3.76-3.62,7.64-7.1,11.68-10.47
		c2.02-1.68,4.09-3.32,6.24-4.9c2.16-1.57,4.37-3.1,6.87-4.45c1.26-0.67,2.57-1.3,4.15-1.78c0.8-0.23,1.66-0.44,2.73-0.48
		c1.04-0.03,2.46,0.14,3.75,1.04c0.64,0.44,1.13,1.02,1.5,1.6c0.34,0.56,0.6,1.16,0.74,1.75c0.15,0.59,0.21,1.17,0.2,1.72
		l-0.02,0.98l-0.1,3.86l-0.1,3.86l-0.05,1.93c0.03,0.21-0.02,0.14,0.02,0.36c0.03,0.17,0.08,0.35,0.13,0.5
		c0.1,0.33,0.24,0.51,0.34,0.63c0.03,0.02,0.05,0.05,0.07,0.08c0.03,0.03,0.06,0.02,0.09,0.05c0.03,0.07,0.15,0.06,0.23,0.1
		c0.42,0.13,1.36-0.02,2.3-0.36c1.96-0.74,4.01-2.18,5.92-3.67l1.45-1.15l1.4-1.24c0.92-0.8,1.9-1.69,2.87-2.58
		c3.96-3.44,8.03-6.85,13.12-9.15c0.65-0.27,1.31-0.53,2.02-0.73c0.72-0.21,1.39-0.35,2.28-0.43c1.86-0.11,3.72,0.81,4.75,2.34
		c0.12,0.17,0.27,0.44,0.33,0.54l0.22,0.39l0.46,0.75c0.32,0.49,0.67,0.96,1.03,1.41c0.74,0.89,1.58,1.66,2.51,2.2
		c0.93,0.55,1.94,0.85,2.99,0.88c1.05-0.01,2.13-0.29,3.17-0.77c0.52-0.24,1.01-0.58,1.53-0.86l1.44-1.09l2.93-2.5l5.86-5.02
		l2.93-2.51l1.46-1.26l0.73-0.63l0.37-0.31c0.07-0.04,0.1-0.12,0.2-0.14c0.11,0,0.3,0.09,0.62,0.31l0,0
		c0.2,0.33,0.27,0.53,0.26,0.63c-0.02,0.09-0.11,0.12-0.16,0.19l-0.35,0.33l-0.7,0.66l-1.4,1.33l-2.81,2.65l-5.62,5.3l-2.82,2.65
		l-1.58,1.31c-0.59,0.37-1.15,0.79-1.78,1.12c-1.27,0.65-2.69,1.13-4.22,1.21c-1.53,0.04-3.07-0.35-4.39-1.05
		c-1.33-0.69-2.45-1.64-3.41-2.69c-0.47-0.53-0.92-1.07-1.33-1.64c-0.2-0.29-0.4-0.57-0.59-0.87l-0.28-0.44
		c-0.11-0.17-0.12-0.18-0.19-0.28c-0.45-0.59-1.22-0.91-1.92-0.82c-0.39,0.06-0.98,0.19-1.49,0.38c-0.53,0.17-1.06,0.41-1.58,0.66
		c-4.23,2.14-8.07,5.57-11.66,9.05c-0.89,0.89-1.77,1.78-2.74,2.72L87.4,56.7l-1.51,1.33c-2.05,1.75-4.15,3.48-6.96,4.74
		c-1.44,0.56-3.07,1.17-5.21,0.85c-0.54-0.11-1.07-0.21-1.59-0.5c-0.26-0.13-0.52-0.25-0.76-0.41c-0.23-0.17-0.45-0.35-0.67-0.53
		c-0.84-0.75-1.44-1.67-1.79-2.54c-0.19-0.45-0.33-0.88-0.44-1.34c-0.12-0.4-0.17-1.12-0.2-1.56l-0.05-1.93l-0.1-3.86l-0.1-3.86
		L68,46.15c-0.01-0.09-0.03-0.15-0.04-0.18c-0.01-0.03-0.04-0.02-0.03-0.01c0.01,0.05,0.08,0.13,0.18,0.21
		c0.23,0.16,0.29,0.13,0.06,0.15c-0.22,0.02-0.62,0.12-1.05,0.27c-0.87,0.32-1.87,0.84-2.86,1.43c-3.99,2.44-7.87,5.74-11.6,9.09
		c-3.74,3.38-7.35,6.95-10.91,10.56l-2.64,2.73c-1.03,1-2.18,2.13-3.19,2.91c-1.05,0.85-2.05,1.74-3.17,2.53
		c-1.09,0.82-2.18,1.64-3.38,2.39c-2.3,1.55-4.85,2.95-7.78,3.97c-0.75,0.24-1.46,0.52-2.3,0.65c-0.82,0.16-1.61,0.36-2.52,0.38
		l-1.33,0.07c-0.46-0.01-0.94-0.07-1.41-0.12c-0.93-0.05-1.9-0.37-2.85-0.65c-0.47-0.15-0.92-0.4-1.37-0.62
		c-0.46-0.22-0.9-0.46-1.29-0.76c-0.4-0.29-0.8-0.58-1.19-0.89c-0.34-0.33-0.68-0.66-1.01-1.01c-0.35-0.34-0.62-0.7-0.89-1.06
		c-0.26-0.36-0.56-0.72-0.78-1.09c-0.43-0.73-0.89-1.48-1.2-2.22c-1.37-2.98-1.98-5.89-2.36-8.73c-0.38-2.84-0.45-5.62-0.39-8.39
		c0.04-1.39,0.11-2.74,0.25-4.19l0.04-0.36c0.02-0.2,0.03-0.2,0.05-0.31l0.09-0.5l0.18-1.01l0.36-2.01c0.52-2.66,1.1-5.26,1.81-7.89
		c0.35-1.31,0.79-2.63,1.19-3.94c0.5-1.31,0.9-2.63,1.5-3.94c1.07-2.62,2.49-5.25,4.6-7.62c0.5-0.59,1.15-1.15,1.73-1.7
		c0.64-0.52,1.33-1.03,2.05-1.49c1.49-0.89,3.19-1.55,4.96-1.81c1.79-0.23,3.56-0.01,5.12,0.46c1.57,0.49,2.93,1.24,4.11,2.1
		c1.19,0.85,2.22,1.83,3.16,2.83c0.47,0.5,0.92,1.02,1.34,1.55c0.21,0.27,0.42,0.53,0.61,0.81l0.29,0.41
		c0.04,0.07,0.1,0.13,0.14,0.22c0.01,0.1-0.02,0.25-0.2,0.52L33.84,30.13z"
      />
    </g>
    <g>
      <path
        class="st1"
        d="M114.84,15.64c0.46,0.05,0.57,0.12,0.64,0.2c0.09,0.08,0.17,0.15,0.21,0.23c0.08,0.16,0.06,0.32,0.08,0.48
		l0.04,0.96l0.04,1.92c-0.01,1.28-0.05,2.56-0.16,3.84c-0.11,1.28-0.26,2.56-0.5,3.84c-0.1,0.52-0.08,1.06,0.04,1.6
		c0.05,0.27,0.15,0.53,0.25,0.8c0.05,0.13,0.12,0.26,0.19,0.39c0.08,0.13,0.15,0.25,0.04,0.58c-0.33,0.1-0.47-0.01-0.59-0.13
		c-0.13-0.12-0.25-0.25-0.36-0.38c-0.23-0.27-0.41-0.58-0.56-0.91c-0.29-0.66-0.38-1.42-0.29-2.15c0.14-1.23,0.19-2.47,0.2-3.72
		c0-1.25,0-2.5-0.03-3.75l-0.05-1.87l-0.04-0.94c0-0.16-0.04-0.31,0.03-0.47c0.03-0.08,0.1-0.16,0.18-0.24
		c0.06-0.08,0.16-0.16,0.61-0.27L114.84,15.64z"
      />
    </g>
    <g>
      <path
        class="st1"
        d="M125.2,13.42c0.22,0.16,0.32,0.1,0.41,0.18c0.08,0.06,0.14,0.1,0.18,0.16c0.08,0.12,0.11,0.23,0.15,0.35
		c0.05,0.25,0.05,0.5,0.08,0.75l0.13,1.52c0.08,1.01,0.16,2.03,0.21,3.05c0.12,2.03,0.16,4.08,0.06,6.12l0,0.04l0,0.01l-0.39,2.96
		c-0.06,0.5-0.14,0.99-0.17,1.45c-0.02,0.23-0.01,0.49-0.02,0.73c-0.02,0.25,0.1,0.49-0.48,0.75c-0.58-0.24-0.46-0.5-0.49-0.75
		c-0.01-0.26-0.02-0.5-0.02-0.77c0.01-0.54,0.06-1.03,0.1-1.53l0.24-2.98l0,0.05c-0.03-2-0.1-4.01-0.24-6.01
		c-0.07-1-0.15-2-0.25-3.01L124.55,15c-0.02-0.25-0.06-0.51-0.05-0.77c0.02-0.13,0.04-0.27,0.1-0.4c0.03-0.07,0.1-0.15,0.17-0.22
		C124.86,13.58,124.97,13.39,125.2,13.42z"
      />
    </g>
    <g>
      <path
        class="st1"
        d="M133.5,47.03c0.73,0.12,1.08,0.28,1.24,0.45c0.16,0.17,0.09,0.36,0.13,0.54l0.1,1.09l0.19,2.18
		c0.1,1.46,0.18,2.91,0.24,4.37c0.08,2.92,0.09,5.85-0.12,8.8c-0.04,0.74-0.12,1.48-0.19,2.22l-0.24,2.16l-0.45,4.32
		c-0.14,1.44-0.28,2.88-0.38,4.31l-0.17,2.13c-0.07,0.71-0.04,1.39-0.43,2.04l-0.21,0.21c-0.6-0.3-0.66-0.74-0.8-1.11
		c-0.1-0.38-0.14-0.76-0.16-1.13c-0.04-0.75-0.07-1.48-0.06-2.21c0.03-1.46,0.08-2.92,0.14-4.37c0.1-2.88,0.32-5.85,0.31-8.64
		c-0.02-2.84-0.18-5.72-0.33-8.58l-0.22-4.31l-0.11-2.16l-0.06-1.08c0.01-0.18-0.08-0.35,0.05-0.54c0.13-0.19,0.45-0.4,1.15-0.64
		L133.5,47.03z"
      />
    </g>
  </svg>

</svg>